<?xml version="1.0" encoding="UTF-8"?>
<svg id="_レイヤー_1" data-name="レイヤー_1" xmlns="http://www.w3.org/2000/svg" version="1.1" viewBox="0 0 172.9 172.9">
  <!-- Generator: Adobe Illustrator 29.1.0, SVG Export Plug-In . SVG Version: 2.1.0 Build 142)  -->
  <defs>
    <style>
      .st0 {
        stroke-width: 2px;
      }

      .st0, .st1 {
        fill: none;
        stroke: #aeff50;
      }

      .st1 {
        stroke-miterlimit: 10;
        stroke-width: .2px;
      }

      .st2 {
        fill: #aeff50;
      }
    </style>
  </defs>
  <circle class="st0" cx="86.5" cy="86.5" r="85.5"/>
  <g>
    <g>
      <path class="st2" d="M26.3,55.8c-.2.3-.3.4-.5,1.1-2,5.6-4.7,8.5-9.8,10.9-.5-.9-.8-1.3-1.4-1.8,2.5-1,4.7-2.4,6.1-4.1-1-.9-2.4-1.9-3.5-2.4l1.3-1.5c1.3.7,2.2,1.3,3.4,2.3.7-1,1.4-2.5,1.9-4h-5.3c-.9,1.6-2.4,3.3-4,4.6-.5-.6-.8-.9-1.7-1.4,1.7-1.3,3.3-3,4.2-4.9.6-1.1.9-1.7,1-2.4l2.2.5c-.2.3-.2.3-.5,1-.3.6-.3.7-.4.8.2,0,.2,0,.5,0h3.9c.4,0,.7,0,.9-.1-.4-.8-.7-1.2-1.2-1.9l1.3-.4c.7.9,1.1,1.6,1.6,2.6l-.6.2.5.8ZM27.4,54.6c-.4-.9-.9-1.8-1.5-2.6l1.3-.4c.7.8,1.1,1.5,1.6,2.5l-1.3.5Z"/>
      <path class="st2" d="M40.4,54c-.3.3-.4.3-.6.6-1.3,1.3-2.5,2.4-4,3.5v7.3c0,.9,0,1.4,0,1.9h-2.4c0-.5.1-.8.1-1.8v-6c-2,1.2-2.9,1.6-6.1,2.8-.4-.9-.5-1.2-1.1-1.9,3.4-.9,6.2-2.3,8.9-4.4,1.5-1.2,2.7-2.3,3.2-3.2l2,1.4Z"/>
      <path class="st2" d="M49.1,63.5h4.1c1.2,0,1.5,0,2.2-.1v2.1c-.6,0-1.1,0-2.2,0h-10.2c-1.1,0-1.6,0-2.2,0v-2.1c.7.1,1,.1,2.2.1h3.8v-7h-2.6c-1.1,0-1.6,0-2.2,0v-2.1c.6.1,1.1.1,2.2.1h7.6c1.2,0,1.6,0,2.2-.1v2.1c-.6,0-1,0-2.2,0h-2.9v7Z"/>
      <path class="st2" d="M57.9,56.7c.7,1.3,1.1,2.1,1.7,4l-1.9.6c-.4-1.7-.8-2.6-1.5-4.1l1.8-.5ZM67.7,56.8c-.1.3-.1.3-.2.9-.5,2.3-1.3,4.2-2.3,5.7-1.3,1.7-2.7,2.8-5.2,4.1-.4-.7-.6-1-1.4-1.7,1.2-.5,1.9-.8,2.9-1.6,2-1.4,3.1-3.2,3.9-5.9.2-.8.3-1.4.3-2l2.1.5ZM61.6,56c.9,1.7,1.2,2.4,1.6,3.9l-1.9.6c-.3-1.3-.8-2.6-1.5-4l1.8-.5Z"/>
      <path class="st2" d="M70.5,67.2c0-.5.1-1,.1-1.9v-10.9c0-.8,0-1.3-.1-1.7h2.3c0,.5,0,.7,0,1.8v3.2c2.3.8,5,2.1,7.7,3.6l-1.2,2c-1.4-1-3.2-1.9-6-3.2-.4-.2-.4-.2-.6-.3,0,.5,0,.7,0,1.2v4.5c0,.9,0,1.3,0,1.9h-2.3Z"/>
      <path class="st2" d="M86.5,60c0,1.1-.9,2-2,2s-2-.9-2-2,.9-2,2-2,2,.9,2,2Z"/>
      <path class="st2" d="M99.3,60.2c0,1.1-.3,2.5-.6,3.5-.4,1.4-1.2,2.6-2.5,4-.4-.4-.8-.8-1.2-1.2-.2.8-.7,1-2.3,1s-.6,0-1.1,0c0-.8-.1-1.1-.4-1.8.8.1,1.1.2,1.6.2s.5,0,.5-.3v-1.8h-2.7c-.3,1.8-.5,2.6-1.4,4-.5-.5-.8-.8-1.5-1.3,1.2-1.7,1.5-3.3,1.5-7.6s0-1.2,0-1.6c-.4-.5-.7-.7-1.3-1.1,1.3-1.2,2.2-2.6,2.6-4.2l1.8.5-.5,1h2.2c.7,0,1,0,1.6,0v1.7c-.5,0-.8,0-1.4,0h-.8c.3.5.4.7.7,1.3l-1.6.4c-.3-.8-.4-1-.8-1.8h-.8c-.5.7-.9,1.4-1.4,1.9.4,0,.6,0,1.3,0h2.5c.8,0,1.2,0,1.6,0,0,.4,0,.7,0,1.4v7.7c0,0,0,.1,0,.2.9-.8,1.3-1.4,1.7-2.4.5-1,.7-2,.8-3.7h-.7c-.6,0-.9,0-1.3,0v-1.8c.4,0,.7,0,1.3,0h.8q0-.6,0-.8c0-.5,0-.8,0-1.1h1.9c-.2-.4-.4-1-.8-1.6h-1c-.4.7-.7,1.1-1.4,1.9-.4-.4-.8-.7-1.4-1,.7-.7,1.1-1.2,1.5-1.9.4-.7.6-1.3.8-2l1.8.5c0,0-.2.4-.4,1h3.2c.9,0,1.3,0,1.9,0v1.7c-.6,0-1,0-1.9,0h-1.3c.4.5.5.8.8,1.5l-1.6.5c0-.2,0-.2-.1-.3,0,.3,0,.4,0,1.8h2.4c.7,0,1,0,1.4,0,0,.5,0,.6,0,1.2,0,1.5-.2,3.7-.4,4.9-.2,1.5-.4,2.2-.9,2.5-.4.3-.8.4-1.9.4s-.5,0-1.1,0c0-.6-.1-1.1-.4-1.8.7,0,1.1.1,1.6.1s.7-.2.9-1c.2-.9.3-2.4.4-4.6h-2ZM90.9,61.2c0,.4,0,.7,0,1.2h2.5v-1.2h-2.4ZM93.3,58.5h-2.4v1.3h2.4v-1.3Z"/>
      <path class="st2" d="M115.5,55.6c1,0,1.6,0,2.2,0q0,.7-.1,2.6c0,2.3-.2,5.2-.4,6.3-.2,1.6-.5,2.2-1,2.5-.4.3-1.1.5-2,.5s-1.5,0-2.6-.2c-.1-.9-.2-1.4-.5-2.1,1.1.2,2.1.3,2.9.3s1.1-.3,1.2-1.4c.2-1.3.4-3.9.4-6.6h-4.6c-.3,2.5-.7,4.2-1.5,5.7-1,1.8-2.5,3.2-4.9,4.5-.4-.7-.8-1.3-1.4-1.8,2.3-1,3.9-2.4,4.8-4.2.5-1,.8-2.3,1.1-4.2h-3c-.9,0-1.5,0-2.1.1v-2c.6,0,1.2.1,2.2.1h3c0-.7,0-.8,0-1.7s0-1.3-.1-1.6h2.3q0,.4-.2,3.4h4.3Z"/>
      <path class="st2" d="M126,56.9c0,.3,0,.3,0,1.4,0,2.9-.5,4.5-1.7,6-1,1.3-2.3,2.2-4.4,3.1-.4-.9-.7-1.2-1.3-1.9,1.4-.4,2.1-.8,3-1.4,1.7-1.4,2.3-2.8,2.3-6.1s0-.7,0-1h2.3ZM132.9,54.8c-.2.3-.2.3-.7,1.2-.6,1.3-1.6,2.5-2.6,3.4-.7.6-1.2,1-2,1.4-.5-.7-.8-1-1.5-1.5,1.1-.5,1.8-.9,2.5-1.6.7-.6,1.2-1.3,1.6-2.2h-8.9c-1.2,0-1.6,0-2.3.1v-2.1c.6.1,1.2.1,2.3.1h8.9c1,0,1.2,0,1.6-.2l1.1,1.3Z"/>
      <path class="st2" d="M135.2,56.7c.7,1.3,1.1,2.1,1.7,4l-1.9.6c-.4-1.7-.8-2.6-1.5-4.1l1.8-.5ZM145,56.8c-.1.3-.1.3-.2.9-.5,2.3-1.3,4.2-2.3,5.7-1.3,1.7-2.7,2.8-5.2,4.1-.4-.7-.6-1-1.4-1.7,1.2-.5,1.9-.8,2.9-1.6,2-1.4,3.1-3.2,3.9-5.9.2-.8.3-1.4.3-2l2.1.5ZM138.8,56c.9,1.7,1.2,2.4,1.6,3.9l-1.9.6c-.3-1.3-.8-2.6-1.5-4l1.8-.5Z"/>
      <path class="st2" d="M155.8,54.1c.5,0,.7,0,1,0,0-1.1.9-2,2-2s2,.9,2,2-.9,2-2,2-.2,0-.3,0c-1.4,5.6-4.4,9-9.8,11.3-.4-.9-.7-1.3-1.5-2,4.7-1.5,7.8-4.6,8.9-9.1h-8.1c-1.3,0-1.6,0-2.1.1v-2.2c.6.1,1,.1,2.2.1h7.8ZM157.6,54.1c0,.6.5,1.1,1.1,1.1s1.1-.5,1.1-1.1-.5-1.1-1.1-1.1-1.1.5-1.1,1.1Z"/>
      <path class="st2" d="M11.2,81.2c0,.2,0,.2,0,.3v.3s-.1.5-.1.5v.4c-.8,4.9-2.1,8.2-4.4,10.8-.8-.8-1.1-1-1.9-1.5,1-1,1.7-2.1,2.4-3.6.7-1.6,1.3-3.7,1.6-5.8.1-.7.2-1.3.2-1.6v-.2l2.3.4ZM16,80.7c0,.8.3,2.4.7,3.9.8,3.1,2,5.4,3.8,7.3-.9.5-1.2.8-1.9,1.6-2.3-2.7-3.8-6.6-4.5-11.2-.1-.7-.2-1-.2-1.2l2.1-.4ZM17.5,79.7c.6.9,1,1.6,1.4,2.7l-1.3.4c-.4-1.1-.7-1.8-1.4-2.8l1.3-.4ZM19.8,82.2c-.4-1.1-.8-1.9-1.4-2.7l1.3-.4c.6.9,1,1.6,1.4,2.6l-1.3.4Z"/>
      <path class="st2" d="M26.4,80.3q0,.5-.2,3.8c-.1,3.3-.5,5.2-1.4,7-.6,1.2-1.2,2-2.3,3.1-.7-.8-.9-1.1-1.7-1.6.8-.7,1.2-1.1,1.8-2,1.2-2,1.6-4.1,1.6-8.9s0-1.1,0-1.5h2.3ZM30.9,80.1c0,.5-.1.8-.1,1.6v9.7c1.1-.6,1.8-1.1,2.5-1.9.8-.9,1.3-1.9,1.7-3.1.6.8.8,1,1.6,1.6-.7,1.7-1.6,3-2.7,4-1,.8-1.9,1.3-3.6,2-.4.1-.5.2-.7.3l-1.1-1.2c.1-.5.1-.9.2-1.8v-9.6c0,0,0-.5,0-.5,0-.4,0-.8,0-1.1h2.3Z"/>
      <path class="st2" d="M50.4,82.6c-.2.3-.2.4-.4,1-.8,2.6-2,4.9-3.5,6.6-1.6,1.8-3.4,3.1-6.1,4.3-.5-.8-.7-1.1-1.4-1.8,1.7-.7,2.7-1.2,3.7-2,2.4-1.8,4-4.1,5-7.2h-5.1c-1,1.7-2.4,3.2-4,4.4-.5-.7-.8-.9-1.6-1.5,1.9-1.3,3.2-2.7,4.4-4.9.5-1,.8-1.6.9-2.2l2.3.5q-.1.2-.3.5t-.2.5-.2.4-.3.5c.2,0,.5,0,.8,0h3.7c.7,0,.8,0,1.2-.2l1.1,1.1Z"/>
      <path class="st2" d="M59,83.9c0,.3,0,.3,0,1.4,0,2.9-.5,4.5-1.7,6-1,1.3-2.3,2.2-4.4,3.1-.4-.9-.7-1.2-1.3-1.9,1.4-.4,2.1-.8,3-1.4,1.7-1.4,2.3-2.8,2.3-6.1s0-.7,0-1h2.3ZM65.9,81.8c-.2.3-.2.3-.7,1.2-.6,1.3-1.6,2.5-2.6,3.4-.7.6-1.2,1-2,1.4-.5-.7-.8-1-1.5-1.5,1.1-.5,1.8-.9,2.5-1.6.7-.6,1.2-1.3,1.6-2.2h-8.9c-1.2,0-1.6,0-2.3.1v-2.1c.6.1,1.2.1,2.3.1h8.9c1,0,1.2,0,1.6-.2l1.1,1.3Z"/>
      <path class="st2" d="M69,83.7c.7,1.3,1.1,2.1,1.7,4l-1.9.6c-.4-1.7-.8-2.6-1.5-4.1l1.8-.5ZM78.8,83.8c-.1.3-.1.3-.2.9-.5,2.3-1.3,4.2-2.3,5.7-1.3,1.7-2.7,2.8-5.2,4.1-.4-.7-.6-1-1.4-1.7,1.2-.5,1.9-.8,2.9-1.6,2-1.4,3.1-3.2,3.9-5.9.2-.8.3-1.4.3-2l2.1.5ZM72.6,83c.9,1.7,1.2,2.4,1.6,3.9l-1.9.6c-.3-1.3-.8-2.6-1.5-4l1.8-.5Z"/>
      <path class="st2" d="M90.4,81.1c.5,0,.7,0,1,0,0-1.1.9-2,2-2s2,.9,2,2-.9,2-2,2-.2,0-.3,0c-1.4,5.6-4.4,9-9.8,11.3-.4-.9-.7-1.3-1.5-2,4.7-1.5,7.8-4.6,8.9-9.1h-8.1c-1.3,0-1.6,0-2.1.1v-2.2c.6.1,1,.1,2.2.1h7.8ZM92.2,81.1c0,.6.5,1.1,1.1,1.1s1.1-.5,1.1-1.1-.5-1.1-1.1-1.1-1.1.5-1.1,1.1Z"/>
      <path class="st2" d="M100.9,87c0,1.1-.9,2-2,2s-2-.9-2-2,.9-2,2-2,2,.9,2,2Z"/>
      <path class="st2" d="M109.6,85c.6,0,1,0,1.2,0,0,.3,0,.4-.1.7-.3,2.7-.6,3.9-1.1,5.4,1.3,1.4,2.8,1.8,6.4,1.8s1.6,0,3-.2c-.3.8-.4,1.1-.5,1.8-1,0-1.4,0-2,0-4.2,0-6.1-.5-7.6-2-.5.9-.8,1.3-1.8,2.4-.3-.6-.6-1-1-1.4,0,.6,0,.7,0,1.3h-1.9c0-.7.1-1.2.1-2v-4.5c0-.9,0-1.3,0-2.1-.5.9-.8,1.3-1.1,1.8-.2-.7-.4-1.3-.7-2,1.1-1.5,1.8-2.9,2.3-4.5.3-1,.6-1.8.7-2.4l1.8.5c-.1.3-.2.5-.2.7.3,0,.6,0,1,0h.9c.5,0,.7,0,1,0l.7.8q0,.2-.6,1.3c-.4.9-.9,1.7-1.4,2.6h.7ZM106.2,92.8v.6c.8-.7,1.2-1.3,1.7-2.2-.6-1-.9-1.6-1.6-3.6l1.5-.5c.2.9.4,1.6.8,2.4.3-1,.4-1.6.6-3h-1.3c-.4,0-.7,0-1.2,0h-.3s.5-.8.5-.8c1.1-1.8,1.4-2.4,2-3.8h-.7c-.4,0-.6,0-.8,0v-1.4c-.3,1.1-.6,1.7-1,2.8v9.5ZM113.1,81.8h-.6c-.6,0-.8,0-1.3,0v-1.5c.4,0,.7,0,1.3,0h.6c0-.5,0-.8,0-1.2h1.8c0,.4,0,.6,0,1.2h2c.6,0,1,0,1.3,0,0,.3,0,.6,0,1.1v1.2c.5,0,.7,0,1.1,0v1.6c-.5,0-.6,0-1.1,0v1.4c0,.5,0,.7,0,1.1-.4,0-.8,0-1.3,0h-1.9v.9h1.9c.7,0,1.1,0,1.5,0v1.5c-.5,0-.9,0-1.5,0h-1.9v1h2.3c.7,0,1.2,0,1.6,0v1.6c-.5,0-1,0-1.6,0h-2.3c0,.4,0,.7,0,1.1h-1.8c0-.4,0-.6,0-1.1h-1.3c-.7,0-1,0-1.5,0v-1.6c.5,0,.9,0,1.5,0h1.3v-1h-.8c-.6,0-1,0-1.4,0v-1.5c.4,0,.8,0,1.4,0h.8v-.9h-.7c-.5,0-.8,0-1.2,0v-1.5c.4,0,.7,0,1.2,0h.7v-1h-1.4c-.5,0-.8,0-1.1,0v-1.6c.4,0,.8,0,1.6,0h.9v-1ZM116.4,82.8v-1h-1.6v1h1.6ZM114.8,85.3h1.6v-1h-1.6v1Z"/>
      <path class="st2" d="M127.4,84.1h-2.7c-.4,0-.9,0-1.2,0v-1.5c.3,0,.6,0,1.2,0h2.7v-.8h-4.8c0,5.1-.1,7.1-.5,9.3-.3,1.6-.6,2.5-1.3,3.6-.6-.8-.8-1-1.4-1.5.5-1,.8-1.9,1-3.5.3-2.2.5-4.2.5-7.5s0-1.6-.1-2.1c.5,0,1.1,0,2.2,0h4v-.3c0-.4,0-.7,0-1h2c0,.3,0,.5,0,1v.2h4.4c.8,0,1.5,0,2-.1v1.7c-.5,0-.9,0-1.5,0h-4.4v.8h3.2c.7,0,1,0,1.4,0,0,.4,0,.7,0,1.3v1h.3c.6,0,.9,0,1.2,0v1.6c-.4,0-.7,0-1.2,0h-.3v1.1c0,.7,0,.9,0,1.2-.2,0-.2,0-.4,0l1.1.8c-.8.8-1.4,1.3-2.3,1.9.9.7,1.7,1.2,3.2,1.8-.4.5-.7.8-1.2,1.6-2.6-1.4-4-2.7-5.1-4.6q0,.3,0,.7c0,0,0,.4,0,.6v1.7c0,1.3-.5,1.7-2.2,1.7s-.5,0-1.5,0c0-.7-.2-1.2-.4-1.8q-.9.4-1.7.8c-.2,0-.4.2-.5.3l-.8-1.7c.9-.2,2-.6,3.1-1.1-.8-.8-1.3-1.2-1.9-1.7l1.1-.9c-.5,0-.7,0-1,0v-1.5c.3,0,.7,0,1.2,0h2.8v-.8h-3.2c-.5,0-.8,0-1.3,0v-1.6c.3,0,.5,0,1.2,0h3.2v-.8ZM124.6,88.6c.6.4,1.1.8,1.7,1.5l-1,1.1q.6-.3,2.1-1.1v-1.4h-2.8ZM127.4,91.7c-.9.5-1.3.8-2.1,1.2.4,0,1,.1,1.5.1s.6,0,.6-.4v-.9ZM131.9,84.9v-.8h-2.8v.8h2.8ZM129.1,87.2h2.8v-.8h-2.8v.8ZM129.7,88.6c.4.7.7,1.1,1.2,1.6.9-.6,1.4-1,1.9-1.6h-3.1Z"/>
      <path class="st2" d="M137.3,86.5c.2-.2.5-.6.9-1.3-.8-1-1.3-1.6-2.2-2.5l.9-1.4q.3.3.6.6c.7-1.1,1.1-1.9,1.3-2.6l1.6.6c0,.1-.2.3-.5.9-.4.7-.9,1.5-1.4,2.3.4.4.4.5.7.9.8-1.2,1.4-2.3,1.6-2.9l1.5.8c-.1.2-.2.3-.4.6-1,1.6-2,3-2.9,4.1,1,0,1.3,0,1.8-.1-.2-.5-.3-.7-.5-1.2l1.2-.6c.6,1.2.9,2,1.4,3.4l-1.3.6c-.1-.4-.1-.4-.2-.8q-.5,0-1,.1v5.3c0,.8,0,1.3.1,1.8h-1.9c0-.6.1-1,.1-1.8v-5.1q-.3,0-1.5,0c-.4,0-.8,0-1,.1l-.2-1.7c.2,0,.5,0,.9,0h.3s.2,0,.2,0ZM138.2,88.9c-.1,1.9-.4,3.6-.8,5.2l-1.5-.7c.5-1.6.6-2.7.7-4.7l1.5.2ZM142.2,88.7c.3,1.6.4,2.4.6,4.2l-1.5.3c0-1.7-.2-3.1-.5-4.2l1.3-.3ZM148.8,92.3h1.2c.9,0,1.2,0,1.7,0v1.8c-.5,0-1,0-1.7,0h-4.8v.9h-1.8c0-.5.1-1,.1-1.8v-7.6c-.2.3-.3.4-.5.7-.2-.5-.5-1-1-1.5.9-1,1.3-1.7,2-3,.5-1,.8-1.9.9-2.5l1.8.5q0,.1-.4,1c-.3.7-.5,1.1-.7,1.6h1.8c.6-1.2,1-2.2,1.2-3l1.8.5c-.1.3-.2.3-.4.8-.3.6-.5,1-.8,1.6h.8c.7,0,1.3,0,1.7-.1v1.8c-.4,0-.9,0-1.7,0h-.9v1.6h.9c.7,0,1.1,0,1.4,0v1.7c-.3,0-.7,0-1.4,0h-.9v1.7h.9c.7,0,1,0,1.4,0v1.7q-.3,0-1.4,0h-.9v2ZM147.1,85.5v-1.6h-2v1.6h2ZM145.1,88.7h2v-1.7h-2v1.7ZM145.1,92.3h2v-2h-2v2Z"/>
      <path class="st2" d="M165.8,87.5h.3c.7,0,1.2,0,1.7,0v1.8c-.5,0-1-.1-1.7-.1h-.3v4.1c0,.5-.2,1-.4,1.2-.4.3-.9.4-2,.4s-.7,0-1.6,0c-.1-.7-.2-1.2-.5-1.8.7.1,1.4.2,1.9.2s.7,0,.7-.5v-3.6h-4.3c-.8,0-1.3,0-1.9,0v-1.5c-.8.4-1,.4-1.5.6v4.8c0,1.3-.4,1.7-2.3,1.7s-.6,0-1.1,0c0-.7-.2-1.1-.4-1.7.6,0,1.1,0,1.4,0s.6-.1.6-.5v-3.7q-.9.3-1.2.4c-.2,0-.5.2-.7.2l-.3-1.9c.4,0,.9-.2,2.1-.6v-3.1h-.8c-.5,0-.8,0-1.2,0v-1.8c.4,0,.8.1,1.3.1h.7v-1.4c0-.8,0-1.2-.1-1.7h2c0,.5-.1.9-.1,1.7v1.4h.5c.4,0,.6,0,1,0v1.8c-.3,0-.6,0-.9,0h-.6v2.5c.6-.2.7-.3,1.4-.6h0s0-1.8,0-1.8c.4,0,1.1,0,1.9,0h2.1v-1.7h-1.5c-.8,0-1.2,0-1.7,0v-1.8c.5,0,.9.1,1.7.1h1.5v-.5c0-.5,0-.8-.1-1.3h2c0,.4-.1.7-.1,1.3v.5h2c.8,0,1.2,0,1.7-.1v1.8c-.5,0-1,0-1.7,0h-2v1.7h2.5c.8,0,1.4,0,1.9-.1v1.8c-.4,0-1.1,0-2,0v1.5ZM159.5,86c-.5,0-1.4,0-1.7,0v1.4c.5,0,1.1,0,1.9,0h4.3v-1.5h-4.4ZM160,89.3c.8.9,1.3,1.4,2,2.6l-1.5,1.1c-.7-1.2-1-1.6-2-2.7l1.5-1Z"/>
      <path class="st2" d="M24.1,111.8c-1,.6-2.6,1.4-3.5,1.8q-.4.2-.6.3l-.8-1.7c1.2-.3,3-1.1,4.3-1.9l.5,1.6ZM26.4,109c-.6.8-.9,1.2-1.8,1.9-.5-.6-.7-.7-1.3-1.1,1.1-.8,1.8-1.7,2.4-2.8.2-.4.3-.6.4-.9l1.9.3c-.2.2-.2.3-.3.6-.1.2-.2.3-.3.6h4.8c.9,0,1.2,0,1.5,0l.9.7c-.2.2-.2.3-.3.5-.5.8-1.1,1.6-1.8,2.2-.6-.4-.9-.5-1.6-.8.5-.4.7-.6,1.2-1.1h-2.7c0,.5,0,.6.3,1.1.8,1.6,2.3,2.4,5.2,2.8-.4.8-.6,1.1-.7,1.7-1.5-.4-2.4-.7-3.2-1.1-.6-.3-1.1-.7-1.5-1.1-.4-.4-.6-.7-.9-1.3-.6,1.1-1,1.6-2.3,2.4l1.7.3c-.2.2-.2.3-.5.6-.2.3-.3.4-.5.7h5.9c.8,0,1.2,0,1.7-.1v1.8c-.6,0-1.1-.1-1.9-.1h-1.4c-.5,1-1,1.5-1.7,2.2,2.9.9,3.1,1,4.7,1.6l-1.2,1.5c-1.9-.8-3.3-1.3-5.2-1.9-1.9,1.1-4.1,1.6-7.6,1.8-.2-.6-.4-1.1-.9-1.7h.6c2,0,3.9-.3,5.4-.8-1.3-.3-2.4-.6-4-.9.8-.7,1.1-1,1.8-1.7h-2.2c-.8,0-1.3,0-1.9.1v-1.8c.4,0,.9.1,1.7.1h3.8c.6-.7.7-1,1-1.4-.8.4-1.6.7-2.7.9-.3-.7-.5-1-1-1.6,2.1-.3,3.6-.9,4.6-1.8.7-.7,1-1.3,1-2.2h-1.4ZM20.8,106.4c1.3.5,2.1,1,3,1.7l-1.1,1.5c-1-.8-1.8-1.2-3-1.8l1-1.4ZM25.7,116.7c-.3.4-.5.5-.9,1q1.3.3,2.8.7c.7-.5,1.2-1,1.6-1.6h-3.5Z"/>
      <path class="st2" d="M48.2,115.2c-.5-.7-.7-1-1.2-1.5-.5,1.1-.9,1.6-1.7,2.3-.3-.5-.7-.9-1.1-1.2v.6c-1.9.3-3.8.5-6.2.6-.3,0-.6,0-1,.1l-.2-1.5c.3,0,.3,0,.7,0s1.5,0,2.5-.1v-.7h-.9c-.4,0-.7,0-1,0v-1.1c-.3.1-.4.2-1,.4-.2-.6-.3-.7-.7-1.2.9-.2,1.3-.4,1.7-.7.3-.2.4-.4.6-.7h-.7c-.5,0-.9,0-1.3,0v-1.4c.4,0,.8,0,1.4,0h1.9v-.7h-1.2c-.5,0-.9,0-1.3,0v-1.4c.4,0,.6,0,1.3,0h1.2c0-.4,0-.7,0-1h1.8c0,.3,0,.6,0,.9h0c0,.1,1.2.1,1.2.1.6,0,.9,0,1.3,0v1.4c-.4,0-.7,0-1.2,0h-1.2v.7h1.6c.6,0,1,0,1.3,0v1.3c-.4,0-.7,0-1.3,0h-.4v.6c0,.2,0,.2.5.2s.4-.1.4-.6c.3.2.7.3,1.2.3,0,.2,0,.2,0,.4l.8-.9c.3.2.4.3.7.5,0-.5.1-.8.2-1.5h-.5c-.4,0-.7,0-1.1,0v-1.6c.3,0,.6,0,1.1,0h.5c0-1.2,0-1.3,0-1.8h1.8c0,.3,0,.4,0,.8q0,0,0,.7v.4h1.1c.7,0,1,0,1.4,0,0,.4,0,.8,0,1.2,0,1.6,0,2.7.2,3.6.1.9.2,1.3.4,1.3s.2-.7.3-1.9c.3.4.7.6,1.1.8-.3,2.1-.7,3-1.4,3s-1.2-.6-1.6-1.7c-.4-1.1-.6-2.6-.6-4.7h-.9c0,1.1-.2,1.8-.4,2.6.6.6.9.9,1.6,1.8l-1,1.3ZM48.3,116.7c.9,0,1.4,0,1.9,0q0,.4-.1,1.4c0,.9-.2,1.8-.4,2.4-.3,1-.9,1.3-2.9,1.3s-.9,0-1.4,0c0-.6-.2-1-.6-1.7.9.1,1.5.2,2.3.2s.8,0,1-.5c0-.2.2-.8.2-1.5h-4.2c-.8,2-3,3.2-6.4,3.7-.2-.7-.3-.9-.9-1.6,1.3-.1,2.2-.3,3.1-.6,1.2-.4,1.8-.8,2.3-1.5h-2.8c-.7,0-1.2,0-1.7,0v-1.6c.4,0,1,0,1.7,0h3.3c0-.2,0-.4,0-.6s0-.3,0-.5h2c0,.2,0,.3-.1.7,0,.1,0,.2,0,.3h3.9ZM40.1,110.4c-.3,1-.8,1.5-1.9,2.1.3,0,.5,0,.8,0h.9v-.2c0-.5,0-.8,0-1.1h1.5v-.8h-1.3ZM44.1,114.5c.7-.5,1.2-1.1,1.6-2-.5-.5-.6-.5-1.1-.9-.2.5-.5.5-1.9.5s-1,0-1.2-.2c0,.2,0,.2,0,.4v.2h.9c.4,0,.7,0,1,0v1.3c-.3,0-.7,0-1.1,0h-.9v.7q.2,0,.6,0c.5,0,1,0,2-.2v.4Z"/>
      <path class="st2" d="M55.3,110c-.3.9-.5,1.3-1.1,2.2-.3-.5-.8-1-1.3-1.3.7-1.1,1.1-2.2,1.4-3.7,0-.2,0-.5.1-1l1.8.3c0,.2-.1.3-.3.9,0,.3-.1.4-.3,1h1.3c.7,0,1,0,1.3,0v1.7c-.3,0-.5,0-1.1,0q0,1.9,0,2.8h.3c.4,0,.8,0,1,0-.2-.2-.2-.3-.5-.6,1.3-.6,1.9-1,2.6-1.8h-.5c-.7,0-1.1,0-1.5,0v-1.5c.5,0,.8,0,1.5,0h1.6c.2-.3.3-.5.4-.8-.8,0-1.4,0-2.9,0-.3-.8-.3-.9-.6-1.4.6,0,1.1,0,1.3,0,2.8,0,5.8-.4,6.9-.8l1,1.4c-.2,0-.2,0-.4,0-.9.2-2.3.4-3.4.5-.2.4-.2.5-.4.9h3c.8,0,1.4,0,1.9,0v1.6c-.5,0-1.1,0-1.8,0h-1c.7.7,1.7,1.3,3.2,1.7-.4.5-.5.7-.8,1.6-.9-.4-1.3-.6-2-1v.6c0,.5,0,.7,0,1.1-.3,0-.6,0-1.2,0h-3.5c-.5,0-.8,0-1.2,0,0-.3,0-.6,0-1.1v-.6c-.5.4-.7.6-1.4,1-.1-.3-.2-.4-.4-.7v1.6c-.3,0-.7,0-1.2,0h-.5c0,.3,0,.4-.1.8.4.8,1.2,1.7,1.9,2.3v-1.4c0-.6,0-1,0-1.4.4,0,.9,0,1.7,0h6.1c.8,0,1.3,0,1.7,0,0,.5,0,1.1,0,1.7v3.6c0,1-.1,1.3-.6,1.5-.3.2-.9.2-2,.2s-.4,0-.8,0c0-.6-.1-.9-.3-1.5h-1.8v.7h-1.5c0-.2,0-.7,0-1.1v-1.9c0-.5,0-.8,0-1.1.2,0,.4,0,1,0h2.4c.5,0,.7,0,.9,0,0,.3,0,.4,0,1v2.3h.4c.4,0,.4,0,.4-.5v-3.4h-5.9v3.8c0,1.1,0,1.4,0,1.9h-1.9c0-.5.1-1.1.1-2.1v-1.9c-.3.4-.5.7-.8,1.5-.7-.7-1-1.2-1.5-2.1-.5,1.6-1.1,2.6-2.3,3.9-.3-.6-.6-1.1-1.2-1.7,1.5-1.3,2.1-2.6,2.4-5.2h-.7c-.5,0-.9,0-1.3,0v-1.8c.4,0,.8,0,1.4,0h.8c0-.8,0-1.4,0-2.8h-.3ZM62.7,110.3c-.3.4-.4.5-.6.8h2.4c-.3-.3-.4-.4-.7-.8h-1.1ZM62.1,113h2.5v-.8h-2.5v.8ZM62.8,119h1.4v-1h-1.4v1Z"/>
      <path class="st2" d="M77.6,108.7h-4.5c-.8,0-1.4,0-2.2.1v-1.9c.6,0,1.3.1,2.1.1h9.8c.8,0,1.5,0,2.2-.1v1.9c-.7,0-1.4-.1-2.2-.1h-3.4v4.1h2.9c.8,0,1.4,0,1.9-.1v1.9c-.5,0-1.2-.1-1.9-.1h-2.9v4.8h3.9c.9,0,1.6,0,2.2-.1v2c-.7,0-1.3-.1-2.2-.1h-10.9c-.9,0-1.5,0-2.2.1v-2c.6.1,1.1.1,2.2.1h.4v-5.5c0-.9,0-1.6-.1-2.2h2.2c0,.6-.1,1.3-.1,2.2v5.5h2.8v-10.6Z"/>
      <path class="st2" d="M92.8,114c0,1.1-.9,2-2,2s-2-.9-2-2,.9-2,2-2,2,.9,2,2Z"/>
      <path class="st2" d="M99.2,119.9c0,.9,0,1.4,0,2h-2c0-.6.1-1.1.1-2v-4.7c0-.9,0-1.2,0-1.9-.5.8-.8,1.2-1.3,1.8-.2-.8-.4-1.4-.7-2.1,1.9-2,3.1-4.4,3.6-7l1.9.5c-.6,1.8-1,2.8-1.6,4v6.7c1.9-1.4,3.5-3.7,4.5-6.2h-1.8c-.6,0-1.2,0-1.8.1v-1.9c.5,0,1.2,0,1.9,0h2.5v-1.5c0-.6,0-1.1-.1-1.6h2c0,.5-.1,1-.1,1.6v1.5h3.1c.7,0,1.4,0,2-.1v1.9c-.6,0-1.3-.1-1.9-.1h-2.5c.6,1.3,1,2.1,2,3.4.7,1,1.6,1.9,2.9,2.8-.5.5-.7.9-1.2,1.8-.9-.8-1.3-1.2-1.9-2v1.6c-.4,0-.7,0-1.2,0h-1.3v1.4c0,.7,0,1.2.1,1.9h-2c0-.6.1-1.2.1-1.9v-1.4h-1.2c-.5,0-.8,0-1.2,0v-1.6c-.7.8-.9,1.1-1.8,1.9-.4-.6-.6-.9-1-1.4v2.3ZM104.4,114.9c0-.9,0-1.2,0-2-.8,1.9-1.3,2.8-2.3,4.1.3,0,.6,0,1.1,0h1.1v-2.1ZM107.4,117c.5,0,.7,0,1.1,0-1-1.3-1.7-2.4-2.4-4.1,0,1,0,1.4,0,2v2.1h1.2Z"/>
      <path class="st2" d="M124.7,109.6c1,0,1.6,0,2.2,0q0,.7-.1,2.6c0,2.3-.2,5.2-.4,6.3-.2,1.6-.5,2.2-1,2.5-.4.3-1.1.5-2,.5s-1.5,0-2.6-.2c-.1-.9-.2-1.4-.5-2.1,1.1.2,2.1.3,2.9.3s1.1-.3,1.2-1.4c.2-1.3.4-3.9.4-6.6h-4.6c-.3,2.5-.7,4.2-1.5,5.7-1,1.8-2.5,3.2-4.9,4.5-.4-.7-.8-1.3-1.4-1.8,2.3-1,3.9-2.4,4.8-4.2.5-1,.8-2.3,1.1-4.2h-3c-.9,0-1.5,0-2.1.1v-2c.6,0,1.2.1,2.2.1h3c0-.7,0-.8,0-1.7s0-1.3-.1-1.6h2.3q0,.4-.2,3.4h4.3Z"/>
      <path class="st2" d="M141.2,107.2c-.1.6-.1,1.2-.1,2.3v6c0,3.5-2.1,5.5-5.8,5.5s-3.5-.6-4.4-1.6c-.9-.9-1.3-2.2-1.3-3.9v-6c0-1.1,0-1.7-.1-2.3h2.5c-.1.6-.1,1.2-.1,2.3v6c0,2.3,1.2,3.5,3.5,3.5s3.5-1.2,3.5-3.5v-6c0-1.1,0-1.7-.1-2.3h2.5Z"/>
      <path class="st2" d="M143.6,120.7c.1-.7.1-1.3.1-2.2v-9.2c0-.8,0-1.4-.1-2.2.7,0,1.3,0,2.2,0h3.6c1.6,0,2.8.4,3.6,1.2.7.7,1.1,1.7,1.1,2.9s-.4,2.3-1.1,3.1c-.8.8-2,1.2-3.6,1.2h-3.2v2.8c0,.9,0,1.6.1,2.2h-2.5ZM149.2,113.7c1.6,0,2.4-.8,2.4-2.3s-.2-1.2-.6-1.6c-.4-.4-1-.6-1.9-.6h-3.2v4.6h3.2Z"/>
    </g>
    <g>
      <path class="st1" d="M26.3,55.8c-.2.3-.3.4-.5,1.1-2,5.6-4.7,8.5-9.8,10.9-.5-.9-.8-1.3-1.4-1.8,2.5-1,4.7-2.4,6.1-4.1-1-.9-2.4-1.9-3.5-2.4l1.3-1.5c1.3.7,2.2,1.3,3.4,2.3.7-1,1.4-2.5,1.9-4h-5.3c-.9,1.6-2.4,3.3-4,4.6-.5-.6-.8-.9-1.7-1.4,1.7-1.3,3.3-3,4.2-4.9.6-1.1.9-1.7,1-2.4l2.2.5c-.2.3-.2.3-.5,1-.3.6-.3.7-.4.8.2,0,.2,0,.5,0h3.9c.4,0,.7,0,.9-.1-.4-.8-.7-1.2-1.2-1.9l1.3-.4c.7.9,1.1,1.6,1.6,2.6l-.6.2.5.8ZM27.4,54.6c-.4-.9-.9-1.8-1.5-2.6l1.3-.4c.7.8,1.1,1.5,1.6,2.5l-1.3.5Z"/>
      <path class="st1" d="M40.4,54c-.3.3-.4.3-.6.6-1.3,1.3-2.5,2.4-4,3.5v7.3c0,.9,0,1.4,0,1.9h-2.4c0-.5.1-.8.1-1.8v-6c-2,1.2-2.9,1.6-6.1,2.8-.4-.9-.5-1.2-1.1-1.9,3.4-.9,6.2-2.3,8.9-4.4,1.5-1.2,2.7-2.3,3.2-3.2l2,1.4Z"/>
      <path class="st1" d="M49.1,63.5h4.1c1.2,0,1.5,0,2.2-.1v2.1c-.6,0-1.1,0-2.2,0h-10.2c-1.1,0-1.6,0-2.2,0v-2.1c.7.1,1,.1,2.2.1h3.8v-7h-2.6c-1.1,0-1.6,0-2.2,0v-2.1c.6.1,1.1.1,2.2.1h7.6c1.2,0,1.6,0,2.2-.1v2.1c-.6,0-1,0-2.2,0h-2.9v7Z"/>
      <path class="st1" d="M57.9,56.7c.7,1.3,1.1,2.1,1.7,4l-1.9.6c-.4-1.7-.8-2.6-1.5-4.1l1.8-.5ZM67.7,56.8c-.1.3-.1.3-.2.9-.5,2.3-1.3,4.2-2.3,5.7-1.3,1.7-2.7,2.8-5.2,4.1-.4-.7-.6-1-1.4-1.7,1.2-.5,1.9-.8,2.9-1.6,2-1.4,3.1-3.2,3.9-5.9.2-.8.3-1.4.3-2l2.1.5ZM61.6,56c.9,1.7,1.2,2.4,1.6,3.9l-1.9.6c-.3-1.3-.8-2.6-1.5-4l1.8-.5Z"/>
      <path class="st1" d="M70.5,67.2c0-.5.1-1,.1-1.9v-10.9c0-.8,0-1.3-.1-1.7h2.3c0,.5,0,.7,0,1.8v3.2c2.3.8,5,2.1,7.7,3.6l-1.2,2c-1.4-1-3.2-1.9-6-3.2-.4-.2-.4-.2-.6-.3,0,.5,0,.7,0,1.2v4.5c0,.9,0,1.3,0,1.9h-2.3Z"/>
      <path class="st1" d="M86.5,60c0,1.1-.9,2-2,2s-2-.9-2-2,.9-2,2-2,2,.9,2,2Z"/>
      <path class="st1" d="M99.3,60.2c0,1.1-.3,2.5-.6,3.5-.4,1.4-1.2,2.6-2.5,4-.4-.4-.8-.8-1.2-1.2-.2.8-.7,1-2.3,1s-.6,0-1.1,0c0-.8-.1-1.1-.4-1.8.8.1,1.1.2,1.6.2s.5,0,.5-.3v-1.8h-2.7c-.3,1.8-.5,2.6-1.4,4-.5-.5-.8-.8-1.5-1.3,1.2-1.7,1.5-3.3,1.5-7.6s0-1.2,0-1.6c-.4-.5-.7-.7-1.3-1.1,1.3-1.2,2.2-2.6,2.6-4.2l1.8.5-.5,1h2.2c.7,0,1,0,1.6,0v1.7c-.5,0-.8,0-1.4,0h-.8c.3.5.4.7.7,1.3l-1.6.4c-.3-.8-.4-1-.8-1.8h-.8c-.5.7-.9,1.4-1.4,1.9.4,0,.6,0,1.3,0h2.5c.8,0,1.2,0,1.6,0,0,.4,0,.7,0,1.4v7.7c0,0,0,.1,0,.2.9-.8,1.3-1.4,1.7-2.4.5-1,.7-2,.8-3.7h-.7c-.6,0-.9,0-1.3,0v-1.8c.4,0,.7,0,1.3,0h.8q0-.6,0-.8c0-.5,0-.8,0-1.1h1.9c-.2-.4-.4-1-.8-1.6h-1c-.4.7-.7,1.1-1.4,1.9-.4-.4-.8-.7-1.4-1,.7-.7,1.1-1.2,1.5-1.9.4-.7.6-1.3.8-2l1.8.5c0,0-.2.4-.4,1h3.2c.9,0,1.3,0,1.9,0v1.7c-.6,0-1,0-1.9,0h-1.3c.4.5.5.8.8,1.5l-1.6.5c0-.2,0-.2-.1-.3,0,.3,0,.4,0,1.8h2.4c.7,0,1,0,1.4,0,0,.5,0,.6,0,1.2,0,1.5-.2,3.7-.4,4.9-.2,1.5-.4,2.2-.9,2.5-.4.3-.8.4-1.9.4s-.5,0-1.1,0c0-.6-.1-1.1-.4-1.8.7,0,1.1.1,1.6.1s.7-.2.9-1c.2-.9.3-2.4.4-4.6h-2ZM90.9,61.2c0,.4,0,.7,0,1.2h2.5v-1.2h-2.4ZM93.3,58.5h-2.4v1.3h2.4v-1.3Z"/>
      <path class="st1" d="M115.5,55.6c1,0,1.6,0,2.2,0q0,.7-.1,2.6c0,2.3-.2,5.2-.4,6.3-.2,1.6-.5,2.2-1,2.5-.4.3-1.1.5-2,.5s-1.5,0-2.6-.2c-.1-.9-.2-1.4-.5-2.1,1.1.2,2.1.3,2.9.3s1.1-.3,1.2-1.4c.2-1.3.4-3.9.4-6.6h-4.6c-.3,2.5-.7,4.2-1.5,5.7-1,1.8-2.5,3.2-4.9,4.5-.4-.7-.8-1.3-1.4-1.8,2.3-1,3.9-2.4,4.8-4.2.5-1,.8-2.3,1.1-4.2h-3c-.9,0-1.5,0-2.1.1v-2c.6,0,1.2.1,2.2.1h3c0-.7,0-.8,0-1.7s0-1.3-.1-1.6h2.3q0,.4-.2,3.4h4.3Z"/>
      <path class="st1" d="M126,56.9c0,.3,0,.3,0,1.4,0,2.9-.5,4.5-1.7,6-1,1.3-2.3,2.2-4.4,3.1-.4-.9-.7-1.2-1.3-1.9,1.4-.4,2.1-.8,3-1.4,1.7-1.4,2.3-2.8,2.3-6.1s0-.7,0-1h2.3ZM132.9,54.8c-.2.3-.2.3-.7,1.2-.6,1.3-1.6,2.5-2.6,3.4-.7.6-1.2,1-2,1.4-.5-.7-.8-1-1.5-1.5,1.1-.5,1.8-.9,2.5-1.6.7-.6,1.2-1.3,1.6-2.2h-8.9c-1.2,0-1.6,0-2.3.1v-2.1c.6.1,1.2.1,2.3.1h8.9c1,0,1.2,0,1.6-.2l1.1,1.3Z"/>
      <path class="st1" d="M135.2,56.7c.7,1.3,1.1,2.1,1.7,4l-1.9.6c-.4-1.7-.8-2.6-1.5-4.1l1.8-.5ZM145,56.8c-.1.3-.1.3-.2.9-.5,2.3-1.3,4.2-2.3,5.7-1.3,1.7-2.7,2.8-5.2,4.1-.4-.7-.6-1-1.4-1.7,1.2-.5,1.9-.8,2.9-1.6,2-1.4,3.1-3.2,3.9-5.9.2-.8.3-1.4.3-2l2.1.5ZM138.8,56c.9,1.7,1.2,2.4,1.6,3.9l-1.9.6c-.3-1.3-.8-2.6-1.5-4l1.8-.5Z"/>
      <path class="st1" d="M155.8,54.1c.5,0,.7,0,1,0,0-1.1.9-2,2-2s2,.9,2,2-.9,2-2,2-.2,0-.3,0c-1.4,5.6-4.4,9-9.8,11.3-.4-.9-.7-1.3-1.5-2,4.7-1.5,7.8-4.6,8.9-9.1h-8.1c-1.3,0-1.6,0-2.1.1v-2.2c.6.1,1,.1,2.2.1h7.8ZM157.6,54.1c0,.6.5,1.1,1.1,1.1s1.1-.5,1.1-1.1-.5-1.1-1.1-1.1-1.1.5-1.1,1.1Z"/>
      <path class="st1" d="M11.2,81.2c0,.2,0,.2,0,.3v.3s-.1.5-.1.5v.4c-.8,4.9-2.1,8.2-4.4,10.8-.8-.8-1.1-1-1.9-1.5,1-1,1.7-2.1,2.4-3.6.7-1.6,1.3-3.7,1.6-5.8.1-.7.2-1.3.2-1.6v-.2l2.3.4ZM16,80.7c0,.8.3,2.4.7,3.9.8,3.1,2,5.4,3.8,7.3-.9.5-1.2.8-1.9,1.6-2.3-2.7-3.8-6.6-4.5-11.2-.1-.7-.2-1-.2-1.2l2.1-.4ZM17.5,79.7c.6.9,1,1.6,1.4,2.7l-1.3.4c-.4-1.1-.7-1.8-1.4-2.8l1.3-.4ZM19.8,82.2c-.4-1.1-.8-1.9-1.4-2.7l1.3-.4c.6.9,1,1.6,1.4,2.6l-1.3.4Z"/>
      <path class="st1" d="M26.4,80.3q0,.5-.2,3.8c-.1,3.3-.5,5.2-1.4,7-.6,1.2-1.2,2-2.3,3.1-.7-.8-.9-1.1-1.7-1.6.8-.7,1.2-1.1,1.8-2,1.2-2,1.6-4.1,1.6-8.9s0-1.1,0-1.5h2.3ZM30.9,80.1c0,.5-.1.8-.1,1.6v9.7c1.1-.6,1.8-1.1,2.5-1.9.8-.9,1.3-1.9,1.7-3.1.6.8.8,1,1.6,1.6-.7,1.7-1.6,3-2.7,4-1,.8-1.9,1.3-3.6,2-.4.1-.5.2-.7.3l-1.1-1.2c.1-.5.1-.9.2-1.8v-9.6c0,0,0-.5,0-.5,0-.4,0-.8,0-1.1h2.3Z"/>
      <path class="st1" d="M50.4,82.6c-.2.3-.2.4-.4,1-.8,2.6-2,4.9-3.5,6.6-1.6,1.8-3.4,3.1-6.1,4.3-.5-.8-.7-1.1-1.4-1.8,1.7-.7,2.7-1.2,3.7-2,2.4-1.8,4-4.1,5-7.2h-5.1c-1,1.7-2.4,3.2-4,4.4-.5-.7-.8-.9-1.6-1.5,1.9-1.3,3.2-2.7,4.4-4.9.5-1,.8-1.6.9-2.2l2.3.5q-.1.2-.3.5t-.2.5-.2.4-.3.5c.2,0,.5,0,.8,0h3.7c.7,0,.8,0,1.2-.2l1.1,1.1Z"/>
      <path class="st1" d="M59,83.9c0,.3,0,.3,0,1.4,0,2.9-.5,4.5-1.7,6-1,1.3-2.3,2.2-4.4,3.1-.4-.9-.7-1.2-1.3-1.9,1.4-.4,2.1-.8,3-1.4,1.7-1.4,2.3-2.8,2.3-6.1s0-.7,0-1h2.3ZM65.9,81.8c-.2.3-.2.3-.7,1.2-.6,1.3-1.6,2.5-2.6,3.4-.7.6-1.2,1-2,1.4-.5-.7-.8-1-1.5-1.5,1.1-.5,1.8-.9,2.5-1.6.7-.6,1.2-1.3,1.6-2.2h-8.9c-1.2,0-1.6,0-2.3.1v-2.1c.6.1,1.2.1,2.3.1h8.9c1,0,1.2,0,1.6-.2l1.1,1.3Z"/>
      <path class="st1" d="M69,83.7c.7,1.3,1.1,2.1,1.7,4l-1.9.6c-.4-1.7-.8-2.6-1.5-4.1l1.8-.5ZM78.8,83.8c-.1.3-.1.3-.2.9-.5,2.3-1.3,4.2-2.3,5.7-1.3,1.7-2.7,2.8-5.2,4.1-.4-.7-.6-1-1.4-1.7,1.2-.5,1.9-.8,2.9-1.6,2-1.4,3.1-3.2,3.9-5.9.2-.8.3-1.4.3-2l2.1.5ZM72.6,83c.9,1.7,1.2,2.4,1.6,3.9l-1.9.6c-.3-1.3-.8-2.6-1.5-4l1.8-.5Z"/>
      <path class="st1" d="M90.4,81.1c.5,0,.7,0,1,0,0-1.1.9-2,2-2s2,.9,2,2-.9,2-2,2-.2,0-.3,0c-1.4,5.6-4.4,9-9.8,11.3-.4-.9-.7-1.3-1.5-2,4.7-1.5,7.8-4.6,8.9-9.1h-8.1c-1.3,0-1.6,0-2.1.1v-2.2c.6.1,1,.1,2.2.1h7.8ZM92.2,81.1c0,.6.5,1.1,1.1,1.1s1.1-.5,1.1-1.1-.5-1.1-1.1-1.1-1.1.5-1.1,1.1Z"/>
      <path class="st1" d="M100.9,87c0,1.1-.9,2-2,2s-2-.9-2-2,.9-2,2-2,2,.9,2,2Z"/>
      <path class="st1" d="M109.6,85c.6,0,1,0,1.2,0,0,.3,0,.4-.1.7-.3,2.7-.6,3.9-1.1,5.4,1.3,1.4,2.8,1.8,6.4,1.8s1.6,0,3-.2c-.3.8-.4,1.1-.5,1.8-1,0-1.4,0-2,0-4.2,0-6.1-.5-7.6-2-.5.9-.8,1.3-1.8,2.4-.3-.6-.6-1-1-1.4,0,.6,0,.7,0,1.3h-1.9c0-.7.1-1.2.1-2v-4.5c0-.9,0-1.3,0-2.1-.5.9-.8,1.3-1.1,1.8-.2-.7-.4-1.3-.7-2,1.1-1.5,1.8-2.9,2.3-4.5.3-1,.6-1.8.7-2.4l1.8.5c-.1.3-.2.5-.2.7.3,0,.6,0,1,0h.9c.5,0,.7,0,1,0l.7.8q0,.2-.6,1.3c-.4.9-.9,1.7-1.4,2.6h.7ZM106.2,92.8v.6c.8-.7,1.2-1.3,1.7-2.2-.6-1-.9-1.6-1.6-3.6l1.5-.5c.2.9.4,1.6.8,2.4.3-1,.4-1.6.6-3h-1.3c-.4,0-.7,0-1.2,0h-.3s.5-.8.5-.8c1.1-1.8,1.4-2.4,2-3.8h-.7c-.4,0-.6,0-.8,0v-1.4c-.3,1.1-.6,1.7-1,2.8v9.5ZM113.1,81.8h-.6c-.6,0-.8,0-1.3,0v-1.5c.4,0,.7,0,1.3,0h.6c0-.5,0-.8,0-1.2h1.8c0,.4,0,.6,0,1.2h2c.6,0,1,0,1.3,0,0,.3,0,.6,0,1.1v1.2c.5,0,.7,0,1.1,0v1.6c-.5,0-.6,0-1.1,0v1.4c0,.5,0,.7,0,1.1-.4,0-.8,0-1.3,0h-1.9v.9h1.9c.7,0,1.1,0,1.5,0v1.5c-.5,0-.9,0-1.5,0h-1.9v1h2.3c.7,0,1.2,0,1.6,0v1.6c-.5,0-1,0-1.6,0h-2.3c0,.4,0,.7,0,1.1h-1.8c0-.4,0-.6,0-1.1h-1.3c-.7,0-1,0-1.5,0v-1.6c.5,0,.9,0,1.5,0h1.3v-1h-.8c-.6,0-1,0-1.4,0v-1.5c.4,0,.8,0,1.4,0h.8v-.9h-.7c-.5,0-.8,0-1.2,0v-1.5c.4,0,.7,0,1.2,0h.7v-1h-1.4c-.5,0-.8,0-1.1,0v-1.6c.4,0,.8,0,1.6,0h.9v-1ZM116.4,82.8v-1h-1.6v1h1.6ZM114.8,85.3h1.6v-1h-1.6v1Z"/>
      <path class="st1" d="M127.4,84.1h-2.7c-.4,0-.9,0-1.2,0v-1.5c.3,0,.6,0,1.2,0h2.7v-.8h-4.8c0,5.1-.1,7.1-.5,9.3-.3,1.6-.6,2.5-1.3,3.6-.6-.8-.8-1-1.4-1.5.5-1,.8-1.9,1-3.5.3-2.2.5-4.2.5-7.5s0-1.6-.1-2.1c.5,0,1.1,0,2.2,0h4v-.3c0-.4,0-.7,0-1h2c0,.3,0,.5,0,1v.2h4.4c.8,0,1.5,0,2-.1v1.7c-.5,0-.9,0-1.5,0h-4.4v.8h3.2c.7,0,1,0,1.4,0,0,.4,0,.7,0,1.3v1h.3c.6,0,.9,0,1.2,0v1.6c-.4,0-.7,0-1.2,0h-.3v1.1c0,.7,0,.9,0,1.2-.2,0-.2,0-.4,0l1.1.8c-.8.8-1.4,1.3-2.3,1.9.9.7,1.7,1.2,3.2,1.8-.4.5-.7.8-1.2,1.6-2.6-1.4-4-2.7-5.1-4.6q0,.3,0,.7c0,0,0,.4,0,.6v1.7c0,1.3-.5,1.7-2.2,1.7s-.5,0-1.5,0c0-.7-.2-1.2-.4-1.8q-.9.4-1.7.8c-.2,0-.4.2-.5.3l-.8-1.7c.9-.2,2-.6,3.1-1.1-.8-.8-1.3-1.2-1.9-1.7l1.1-.9c-.5,0-.7,0-1,0v-1.5c.3,0,.7,0,1.2,0h2.8v-.8h-3.2c-.5,0-.8,0-1.3,0v-1.6c.3,0,.5,0,1.2,0h3.2v-.8ZM124.6,88.6c.6.4,1.1.8,1.7,1.5l-1,1.1q.6-.3,2.1-1.1v-1.4h-2.8ZM127.4,91.7c-.9.5-1.3.8-2.1,1.2.4,0,1,.1,1.5.1s.6,0,.6-.4v-.9ZM131.9,84.9v-.8h-2.8v.8h2.8ZM129.1,87.2h2.8v-.8h-2.8v.8ZM129.7,88.6c.4.7.7,1.1,1.2,1.6.9-.6,1.4-1,1.9-1.6h-3.1Z"/>
      <path class="st1" d="M137.3,86.5c.2-.2.5-.6.9-1.3-.8-1-1.3-1.6-2.2-2.5l.9-1.4q.3.3.6.6c.7-1.1,1.1-1.9,1.3-2.6l1.6.6c0,.1-.2.3-.5.9-.4.7-.9,1.5-1.4,2.3.4.4.4.5.7.9.8-1.2,1.4-2.3,1.6-2.9l1.5.8c-.1.2-.2.3-.4.6-1,1.6-2,3-2.9,4.1,1,0,1.3,0,1.8-.1-.2-.5-.3-.7-.5-1.2l1.2-.6c.6,1.2.9,2,1.4,3.4l-1.3.6c-.1-.4-.1-.4-.2-.8q-.5,0-1,.1v5.3c0,.8,0,1.3.1,1.8h-1.9c0-.6.1-1,.1-1.8v-5.1q-.3,0-1.5,0c-.4,0-.8,0-1,.1l-.2-1.7c.2,0,.5,0,.9,0h.3s.2,0,.2,0ZM138.2,88.9c-.1,1.9-.4,3.6-.8,5.2l-1.5-.7c.5-1.6.6-2.7.7-4.7l1.5.2ZM142.2,88.7c.3,1.6.4,2.4.6,4.2l-1.5.3c0-1.7-.2-3.1-.5-4.2l1.3-.3ZM148.8,92.3h1.2c.9,0,1.2,0,1.7,0v1.8c-.5,0-1,0-1.7,0h-4.8v.9h-1.8c0-.5.1-1,.1-1.8v-7.6c-.2.3-.3.4-.5.7-.2-.5-.5-1-1-1.5.9-1,1.3-1.7,2-3,.5-1,.8-1.9.9-2.5l1.8.5q0,.1-.4,1c-.3.7-.5,1.1-.7,1.6h1.8c.6-1.2,1-2.2,1.2-3l1.8.5c-.1.3-.2.3-.4.8-.3.6-.5,1-.8,1.6h.8c.7,0,1.3,0,1.7-.1v1.8c-.4,0-.9,0-1.7,0h-.9v1.6h.9c.7,0,1.1,0,1.4,0v1.7c-.3,0-.7,0-1.4,0h-.9v1.7h.9c.7,0,1,0,1.4,0v1.7q-.3,0-1.4,0h-.9v2ZM147.1,85.5v-1.6h-2v1.6h2ZM145.1,88.7h2v-1.7h-2v1.7ZM145.1,92.3h2v-2h-2v2Z"/>
      <path class="st1" d="M165.8,87.5h.3c.7,0,1.2,0,1.7,0v1.8c-.5,0-1-.1-1.7-.1h-.3v4.1c0,.5-.2,1-.4,1.2-.4.3-.9.4-2,.4s-.7,0-1.6,0c-.1-.7-.2-1.2-.5-1.8.7.1,1.4.2,1.9.2s.7,0,.7-.5v-3.6h-4.3c-.8,0-1.3,0-1.9,0v-1.5c-.8.4-1,.4-1.5.6v4.8c0,1.3-.4,1.7-2.3,1.7s-.6,0-1.1,0c0-.7-.2-1.1-.4-1.7.6,0,1.1,0,1.4,0s.6-.1.6-.5v-3.7q-.9.3-1.2.4c-.2,0-.5.2-.7.2l-.3-1.9c.4,0,.9-.2,2.1-.6v-3.1h-.8c-.5,0-.8,0-1.2,0v-1.8c.4,0,.8.1,1.3.1h.7v-1.4c0-.8,0-1.2-.1-1.7h2c0,.5-.1.9-.1,1.7v1.4h.5c.4,0,.6,0,1,0v1.8c-.3,0-.6,0-.9,0h-.6v2.5c.6-.2.7-.3,1.4-.6h0s0-1.8,0-1.8c.4,0,1.1,0,1.9,0h2.1v-1.7h-1.5c-.8,0-1.2,0-1.7,0v-1.8c.5,0,.9.1,1.7.1h1.5v-.5c0-.5,0-.8-.1-1.3h2c0,.4-.1.7-.1,1.3v.5h2c.8,0,1.2,0,1.7-.1v1.8c-.5,0-1,0-1.7,0h-2v1.7h2.5c.8,0,1.4,0,1.9-.1v1.8c-.4,0-1.1,0-2,0v1.5ZM159.5,86c-.5,0-1.4,0-1.7,0v1.4c.5,0,1.1,0,1.9,0h4.3v-1.5h-4.4ZM160,89.3c.8.9,1.3,1.4,2,2.6l-1.5,1.1c-.7-1.2-1-1.6-2-2.7l1.5-1Z"/>
      <path class="st1" d="M24.1,111.8c-1,.6-2.6,1.4-3.5,1.8q-.4.2-.6.3l-.8-1.7c1.2-.3,3-1.1,4.3-1.9l.5,1.6ZM26.4,109c-.6.8-.9,1.2-1.8,1.9-.5-.6-.7-.7-1.3-1.1,1.1-.8,1.8-1.7,2.4-2.8.2-.4.3-.6.4-.9l1.9.3c-.2.2-.2.3-.3.6-.1.2-.2.3-.3.6h4.8c.9,0,1.2,0,1.5,0l.9.7c-.2.2-.2.3-.3.5-.5.8-1.1,1.6-1.8,2.2-.6-.4-.9-.5-1.6-.8.5-.4.7-.6,1.2-1.1h-2.7c0,.5,0,.6.3,1.1.8,1.6,2.3,2.4,5.2,2.8-.4.8-.6,1.1-.7,1.7-1.5-.4-2.4-.7-3.2-1.1-.6-.3-1.1-.7-1.5-1.1-.4-.4-.6-.7-.9-1.3-.6,1.1-1,1.6-2.3,2.4l1.7.3c-.2.2-.2.3-.5.6-.2.3-.3.4-.5.7h5.9c.8,0,1.2,0,1.7-.1v1.8c-.6,0-1.1-.1-1.9-.1h-1.4c-.5,1-1,1.5-1.7,2.2,2.9.9,3.1,1,4.7,1.6l-1.2,1.5c-1.9-.8-3.3-1.3-5.2-1.9-1.9,1.1-4.1,1.6-7.6,1.8-.2-.6-.4-1.1-.9-1.7h.6c2,0,3.9-.3,5.4-.8-1.3-.3-2.4-.6-4-.9.8-.7,1.1-1,1.8-1.7h-2.2c-.8,0-1.3,0-1.9.1v-1.8c.4,0,.9.1,1.7.1h3.8c.6-.7.7-1,1-1.4-.8.4-1.6.7-2.7.9-.3-.7-.5-1-1-1.6,2.1-.3,3.6-.9,4.6-1.8.7-.7,1-1.3,1-2.2h-1.4ZM20.8,106.4c1.3.5,2.1,1,3,1.7l-1.1,1.5c-1-.8-1.8-1.2-3-1.8l1-1.4ZM25.7,116.7c-.3.4-.5.5-.9,1q1.3.3,2.8.7c.7-.5,1.2-1,1.6-1.6h-3.5Z"/>
      <path class="st1" d="M48.2,115.2c-.5-.7-.7-1-1.2-1.5-.5,1.1-.9,1.6-1.7,2.3-.3-.5-.7-.9-1.1-1.2v.6c-1.9.3-3.8.5-6.2.6-.3,0-.6,0-1,.1l-.2-1.5c.3,0,.3,0,.7,0s1.5,0,2.5-.1v-.7h-.9c-.4,0-.7,0-1,0v-1.1c-.3.1-.4.2-1,.4-.2-.6-.3-.7-.7-1.2.9-.2,1.3-.4,1.7-.7.3-.2.4-.4.6-.7h-.7c-.5,0-.9,0-1.3,0v-1.4c.4,0,.8,0,1.4,0h1.9v-.7h-1.2c-.5,0-.9,0-1.3,0v-1.4c.4,0,.6,0,1.3,0h1.2c0-.4,0-.7,0-1h1.8c0,.3,0,.6,0,.9h0c0,.1,1.2.1,1.2.1.6,0,.9,0,1.3,0v1.4c-.4,0-.7,0-1.2,0h-1.2v.7h1.6c.6,0,1,0,1.3,0v1.3c-.4,0-.7,0-1.3,0h-.4v.6c0,.2,0,.2.5.2s.4-.1.4-.6c.3.2.7.3,1.2.3,0,.2,0,.2,0,.4l.8-.9c.3.2.4.3.7.5,0-.5.1-.8.2-1.5h-.5c-.4,0-.7,0-1.1,0v-1.6c.3,0,.6,0,1.1,0h.5c0-1.2,0-1.3,0-1.8h1.8c0,.3,0,.4,0,.8q0,0,0,.7v.4h1.1c.7,0,1,0,1.4,0,0,.4,0,.8,0,1.2,0,1.6,0,2.7.2,3.6.1.9.2,1.3.4,1.3s.2-.7.3-1.9c.3.4.7.6,1.1.8-.3,2.1-.7,3-1.4,3s-1.2-.6-1.6-1.7c-.4-1.1-.6-2.6-.6-4.7h-.9c0,1.1-.2,1.8-.4,2.6.6.6.9.9,1.6,1.8l-1,1.3ZM48.3,116.7c.9,0,1.4,0,1.9,0q0,.4-.1,1.4c0,.9-.2,1.8-.4,2.4-.3,1-.9,1.3-2.9,1.3s-.9,0-1.4,0c0-.6-.2-1-.6-1.7.9.1,1.5.2,2.3.2s.8,0,1-.5c0-.2.2-.8.2-1.5h-4.2c-.8,2-3,3.2-6.4,3.7-.2-.7-.3-.9-.9-1.6,1.3-.1,2.2-.3,3.1-.6,1.2-.4,1.8-.8,2.3-1.5h-2.8c-.7,0-1.2,0-1.7,0v-1.6c.4,0,1,0,1.7,0h3.3c0-.2,0-.4,0-.6s0-.3,0-.5h2c0,.2,0,.3-.1.7,0,.1,0,.2,0,.3h3.9ZM40.1,110.4c-.3,1-.8,1.5-1.9,2.1.3,0,.5,0,.8,0h.9v-.2c0-.5,0-.8,0-1.1h1.5v-.8h-1.3ZM44.1,114.5c.7-.5,1.2-1.1,1.6-2-.5-.5-.6-.5-1.1-.9-.2.5-.5.5-1.9.5s-1,0-1.2-.2c0,.2,0,.2,0,.4v.2h.9c.4,0,.7,0,1,0v1.3c-.3,0-.7,0-1.1,0h-.9v.7q.2,0,.6,0c.5,0,1,0,2-.2v.4Z"/>
      <path class="st1" d="M55.3,110c-.3.9-.5,1.3-1.1,2.2-.3-.5-.8-1-1.3-1.3.7-1.1,1.1-2.2,1.4-3.7,0-.2,0-.5.1-1l1.8.3c0,.2-.1.3-.3.9,0,.3-.1.4-.3,1h1.3c.7,0,1,0,1.3,0v1.7c-.3,0-.5,0-1.1,0q0,1.9,0,2.8h.3c.4,0,.8,0,1,0-.2-.2-.2-.3-.5-.6,1.3-.6,1.9-1,2.6-1.8h-.5c-.7,0-1.1,0-1.5,0v-1.5c.5,0,.8,0,1.5,0h1.6c.2-.3.3-.5.4-.8-.8,0-1.4,0-2.9,0-.3-.8-.3-.9-.6-1.4.6,0,1.1,0,1.3,0,2.8,0,5.8-.4,6.9-.8l1,1.4c-.2,0-.2,0-.4,0-.9.2-2.3.4-3.4.5-.2.4-.2.5-.4.9h3c.8,0,1.4,0,1.9,0v1.6c-.5,0-1.1,0-1.8,0h-1c.7.7,1.7,1.3,3.2,1.7-.4.5-.5.7-.8,1.6-.9-.4-1.3-.6-2-1v.6c0,.5,0,.7,0,1.1-.3,0-.6,0-1.2,0h-3.5c-.5,0-.8,0-1.2,0,0-.3,0-.6,0-1.1v-.6c-.5.4-.7.6-1.4,1-.1-.3-.2-.4-.4-.7v1.6c-.3,0-.7,0-1.2,0h-.5c0,.3,0,.4-.1.8.4.8,1.2,1.7,1.9,2.3v-1.4c0-.6,0-1,0-1.4.4,0,.9,0,1.7,0h6.1c.8,0,1.3,0,1.7,0,0,.5,0,1.1,0,1.7v3.6c0,1-.1,1.3-.6,1.5-.3.2-.9.2-2,.2s-.4,0-.8,0c0-.6-.1-.9-.3-1.5h-1.8v.7h-1.5c0-.2,0-.7,0-1.1v-1.9c0-.5,0-.8,0-1.1.2,0,.4,0,1,0h2.4c.5,0,.7,0,.9,0,0,.3,0,.4,0,1v2.3h.4c.4,0,.4,0,.4-.5v-3.4h-5.9v3.8c0,1.1,0,1.4,0,1.9h-1.9c0-.5.1-1.1.1-2.1v-1.9c-.3.4-.5.7-.8,1.5-.7-.7-1-1.2-1.5-2.1-.5,1.6-1.1,2.6-2.3,3.9-.3-.6-.6-1.1-1.2-1.7,1.5-1.3,2.1-2.6,2.4-5.2h-.7c-.5,0-.9,0-1.3,0v-1.8c.4,0,.8,0,1.4,0h.8c0-.8,0-1.4,0-2.8h-.3ZM62.7,110.3c-.3.4-.4.5-.6.8h2.4c-.3-.3-.4-.4-.7-.8h-1.1ZM62.1,113h2.5v-.8h-2.5v.8ZM62.8,119h1.4v-1h-1.4v1Z"/>
      <path class="st1" d="M77.6,108.7h-4.5c-.8,0-1.4,0-2.2.1v-1.9c.6,0,1.3.1,2.1.1h9.8c.8,0,1.5,0,2.2-.1v1.9c-.7,0-1.4-.1-2.2-.1h-3.4v4.1h2.9c.8,0,1.4,0,1.9-.1v1.9c-.5,0-1.2-.1-1.9-.1h-2.9v4.8h3.9c.9,0,1.6,0,2.2-.1v2c-.7,0-1.3-.1-2.2-.1h-10.9c-.9,0-1.5,0-2.2.1v-2c.6.1,1.1.1,2.2.1h.4v-5.5c0-.9,0-1.6-.1-2.2h2.2c0,.6-.1,1.3-.1,2.2v5.5h2.8v-10.6Z"/>
      <path class="st1" d="M92.8,114c0,1.1-.9,2-2,2s-2-.9-2-2,.9-2,2-2,2,.9,2,2Z"/>
      <path class="st1" d="M99.2,119.9c0,.9,0,1.4,0,2h-2c0-.6.1-1.1.1-2v-4.7c0-.9,0-1.2,0-1.9-.5.8-.8,1.2-1.3,1.8-.2-.8-.4-1.4-.7-2.1,1.9-2,3.1-4.4,3.6-7l1.9.5c-.6,1.8-1,2.8-1.6,4v6.7c1.9-1.4,3.5-3.7,4.5-6.2h-1.8c-.6,0-1.2,0-1.8.1v-1.9c.5,0,1.2,0,1.9,0h2.5v-1.5c0-.6,0-1.1-.1-1.6h2c0,.5-.1,1-.1,1.6v1.5h3.1c.7,0,1.4,0,2-.1v1.9c-.6,0-1.3-.1-1.9-.1h-2.5c.6,1.3,1,2.1,2,3.4.7,1,1.6,1.9,2.9,2.8-.5.5-.7.9-1.2,1.8-.9-.8-1.3-1.2-1.9-2v1.6c-.4,0-.7,0-1.2,0h-1.3v1.4c0,.7,0,1.2.1,1.9h-2c0-.6.1-1.2.1-1.9v-1.4h-1.2c-.5,0-.8,0-1.2,0v-1.6c-.7.8-.9,1.1-1.8,1.9-.4-.6-.6-.9-1-1.4v2.3ZM104.4,114.9c0-.9,0-1.2,0-2-.8,1.9-1.3,2.8-2.3,4.1.3,0,.6,0,1.1,0h1.1v-2.1ZM107.4,117c.5,0,.7,0,1.1,0-1-1.3-1.7-2.4-2.4-4.1,0,1,0,1.4,0,2v2.1h1.2Z"/>
      <path class="st1" d="M124.7,109.6c1,0,1.6,0,2.2,0q0,.7-.1,2.6c0,2.3-.2,5.2-.4,6.3-.2,1.6-.5,2.2-1,2.5-.4.3-1.1.5-2,.5s-1.5,0-2.6-.2c-.1-.9-.2-1.4-.5-2.1,1.1.2,2.1.3,2.9.3s1.1-.3,1.2-1.4c.2-1.3.4-3.9.4-6.6h-4.6c-.3,2.5-.7,4.2-1.5,5.7-1,1.8-2.5,3.2-4.9,4.5-.4-.7-.8-1.3-1.4-1.8,2.3-1,3.9-2.4,4.8-4.2.5-1,.8-2.3,1.1-4.2h-3c-.9,0-1.5,0-2.1.1v-2c.6,0,1.2.1,2.2.1h3c0-.7,0-.8,0-1.7s0-1.3-.1-1.6h2.3q0,.4-.2,3.4h4.3Z"/>
      <path class="st1" d="M141.2,107.2c-.1.6-.1,1.2-.1,2.3v6c0,3.5-2.1,5.5-5.8,5.5s-3.5-.6-4.4-1.6c-.9-.9-1.3-2.2-1.3-3.9v-6c0-1.1,0-1.7-.1-2.3h2.5c-.1.6-.1,1.2-.1,2.3v6c0,2.3,1.2,3.5,3.5,3.5s3.5-1.2,3.5-3.5v-6c0-1.1,0-1.7-.1-2.3h2.5Z"/>
      <path class="st1" d="M143.6,120.7c.1-.7.1-1.3.1-2.2v-9.2c0-.8,0-1.4-.1-2.2.7,0,1.3,0,2.2,0h3.6c1.6,0,2.8.4,3.6,1.2.7.7,1.1,1.7,1.1,2.9s-.4,2.3-1.1,3.1c-.8.8-2,1.2-3.6,1.2h-3.2v2.8c0,.9,0,1.6.1,2.2h-2.5ZM149.2,113.7c1.6,0,2.4-.8,2.4-2.3s-.2-1.2-.6-1.6c-.4-.4-1-.6-1.9-.6h-3.2v4.6h3.2Z"/>
    </g>
  </g>
</svg>