<?xml version="1.0" encoding="UTF-8"?>
<svg id="_レイヤー_1" data-name="レイヤー_1" xmlns="http://www.w3.org/2000/svg" version="1.1" viewBox="0 0 172.9 172.9">
  <!-- Generator: Adobe Illustrator 29.1.0, SVG Export Plug-In . SVG Version: 2.1.0 Build 142)  -->
  <defs>
    <style>
      .st0 {
        fill: none;
        stroke: #aeff50;
        stroke-width: 2px;
      }

      .st1 {
        fill: #aeff50;
      }
    </style>
  </defs>
  <circle class="st0" cx="86.5" cy="86.5" r="85.5"/>
  <g>
    <path class="st1" d="M11.4,55.9c0-.7,0-1.2,0-1.6h1.6c0,.4,0,.8,0,1.6v1.8h.3c.5,0,.7,0,.9,0v1.5c-.3,0-.5,0-1,0h-.3v3.8c.5-.3.7-.3,1.3-.6v1.5c-1.2.7-2,1-3.4,1.6-.4.2-.5.2-.7.3l-.3-1.6c.4,0,.8-.2,1.7-.5v-4.4h-.3c-.5,0-.8,0-1.1,0v-1.5c.3,0,.5,0,1.1,0h.3v-1.8ZM16.4,64.9c0,.3,0,.4.4.4.4,0,.9,0,1.9,0,1.7,0,2.1,0,2.3-.4.2-.2.3-.7.3-1.7.4.2,1.1.4,1.5.5-.2,2.8-.5,3-4.5,3s-3.4-.3-3.4-1.5v-4.8c-.1,0-.2,0-.3,0-.4.1-.6.2-.9.3l-.4-1.5c.4,0,.9-.2,1.4-.3h.1v-2c0-.7,0-1,0-1.5h1.7c0,.4,0,.9,0,1.4v1.5l1.4-.4v-2.4c0-.6,0-.9,0-1.4h1.6c0,.5,0,.9,0,1.4v2l2-.6c.5-.2.8-.3,1.1-.4,0,.6,0,.7,0,1.5,0,2-.2,3.2-.3,3.9-.2.8-.6,1-1.6,1s-.3,0-.7,0c0-.6-.2-1-.4-1.4.3,0,.6.1.8.1.4,0,.4,0,.5-.4,0-.5.1-1.3.2-2.7l-1.6.5v3.5c0,.6,0,1,0,1.4h-1.6c0-.5,0-.8,0-1.4v-3l-1.4.4v4.8Z"/>
    <path class="st1" d="M36.5,59.2q0,0-.1.3s0,0,0,.2c-.5,1.4-1,2.6-1.6,3.5.4,1.1.7,1.9.8,1.9s.2-.8.3-1.8c.4.5.6.7,1.1.9-.1,1.3-.3,1.9-.6,2.3-.2.3-.4.5-.7.5-.7,0-1.4-.8-2-2.3-.8,1-1.6,1.7-2.8,2.5-.3-.5-.6-.8-1.1-1.1.9-.5,1.9-1.1,2.4-1.7-.7.2-1.8.5-3.4.8-.7.1-1.2.3-1.5.3l-.2-1.5c-1,.5-1.4.7-2.8,1.4-.1,0-.2,0-.3.2l-.3-1.6c.3,0,.8-.2,1.5-.5v-4.1h-.3c-.4,0-.7,0-1,0v-1.5c.3,0,.6,0,1,0h.3v-2.1c0-.7,0-1.1,0-1.6h1.6c0,.5,0,.8,0,1.6v2.1h0c.4,0,.7,0,1,0v1.5c-.3,0-.5,0-1,0h-.1v3.4c.4-.2.6-.3,1.1-.6v1.5c-.2.1-.3.2-.5.3,1.3-.1,3-.4,5-1v1.2c.3-.4.6-.6.9-1.1-.4-1.7-.6-3.1-.8-5.5h-3.3c-.6,0-1.2,0-1.6,0v-1.6c.4,0,.9,0,1.6,0h3.2c0-.4,0-.5,0-.7,0-.6,0-.9,0-1.2h1.6c0,.4,0,.7,0,1.5s0,.3,0,.4h1.5c-.5-.6-.8-.8-1.4-1.3l.9-.7c.6.4.8.6,1.5,1.2l-.9.8c.4,0,.7,0,1,0v1.5c-.4,0-1,0-1.5,0h-1c0,1.4.2,2.5.4,3.7.4-.9.7-1.9.8-2.5l1.5.4ZM28.2,59.4c0-.3,0-.7,0-.9.1,0,.6,0,.9,0h2.1c.3,0,.6,0,.8,0,0,.2,0,.4,0,.6v2.7c0,.3,0,.7,0,.9-.3,0-.5,0-.9,0h-2.1c-.4,0-.7,0-.9,0,0-.3,0-.5,0-.9v-2.5ZM29.4,61.4h1.2v-1.6h-1.2v1.6Z"/>
    <path class="st1" d="M41.9,60.2c-.4,0-.6,0-.9,0v-.6c-.8.6-1.3.9-2.5,1.4-.2-.5-.4-.8-.8-1.3,1.1-.4,1.7-.7,2.7-1.4-.8-.9-1.3-1.3-2-1.8l1.1-.9.4.4v-1.5c.3,0,.7,0,1.2,0h2.6c.7,0,.9,0,1.2,0,.1.6.3.9.9,1.5.4-.4.5-.5.8-.9.2-.3.2-.3.3-.4q0-.1.1-.2l1.3.7c0,0-.2.3-.5.6-.3.3-.7.7-1,1.1.4.3.5.4.8.7.6-.5,1.1-1.1,1.5-1.7l1.3.7c0,0-.1.1-.4.4-.4.4-.8.9-1.3,1.3.8.4,1.2.7,2.2,1.1-.3.4-.4.6-.8,1.4-1.1-.5-1.6-.8-2.3-1.3v.6c-.4,0-.7,0-1.3,0v1.5h2.2c.7,0,1.1,0,1.5,0v1.5c-.4,0-.8,0-1.5,0h-2.2v2.1c0,.3,0,.3.2.4.2,0,.4,0,.9,0,.8,0,1.1,0,1.3-.3.1-.2.2-.6.3-1.4.5.3,1,.4,1.5.5-.3,2.4-.6,2.6-3.2,2.6s-2.4-.2-2.4-1.2v-2.7h-1.8c-.2.8-.4,1.5-.9,2-.7.9-1.5,1.5-3.3,2.2-.3-.5-.5-.9-1-1.4,1.3-.4,2-.7,2.6-1.2.5-.4.8-.9,1-1.6h-1.8c-.6,0-1,0-1.5,0v-1.5c.4,0,.8,0,1.5,0h2c0-.2,0-.3,0-.4v-1.1ZM40.8,55.9c-.3,0-.6,0-.9,0,.7.6,1.1.9,1.5,1.4.6-.5,1-.9,1.4-1.5h-2ZM46.4,58.8h.3c-1-.8-1.6-1.5-2.4-2.5-.8,1.1-1.4,1.7-2.4,2.5h4.5ZM43.3,61.4v.3h1.6v-1.5h-1.6v1.2Z"/>
    <path class="st1" d="M59.6,54.4c-.6.7-.9,1-1.7,1.8-.5-.5-1-.9-1.8-1.4,1.5-1.3,2.4-2.3,3-3.6.1-.3.2-.4.3-.9h-4v14.3h14.3c1.1,0,1.8,0,2.4-.1v2.5c-.7-.1-1.3-.2-2.4-.2h-14.4v.9h-2.6c0-.7.1-1.5.1-2.6v-14.8c0-.9,0-1.7,0-2.4.7,0,1.3.1,2.4.1h14.1c1.1,0,1.7,0,2.5-.2v2.4c-.7-.1-1.3-.1-2.4-.1h-9.7l1.9.6c0,.2-.1.2-.2.4q-.2.4-.5,1h7.2c1.1,0,1.6,0,2.2-.1v2.3c-.7,0-1.3-.1-2.1-.1h-3.4q0,.2,0,.5c0,.6,0,1.1-.1,1.7h4.8c1,0,1.5,0,2.1-.1v2.3c-.6,0-1.2-.1-2.2-.1h-4.1c1.1,1.8,3,2.8,6.4,3.4-.5.7-.7,1.2-1.1,2.3-3.6-1-5.5-2.3-7-4.5-1.2,2.1-3.2,3.5-6.4,4.5-.4-.8-.8-1.5-1.3-2.1,1.6-.4,2.4-.7,3.3-1.2,1.2-.7,2-1.5,2.5-2.4h-3.1c-1.2,0-1.7,0-2.4.1v-2.3c.7,0,1.1.1,2.4.1h3.6c0-.8,0-1,.1-2.2h-2.9Z"/>
    <path class="st1" d="M91.9,61c0,1.1,0,1.4,0,1.9-.5,0-.8,0-1.4,0,1.2,1.3,2.2,2,3.8,2.8-.5.6-.9,1.2-1.3,1.9-1.9-1.1-2.9-2-4.4-3.7l1.4-1h-2.6v3.1c0,.7-.2,1.1-.6,1.4-.4.3-.9.4-1.9.4s-1.6,0-2.5,0c0-.8-.2-1.3-.5-2.2.9.2,1.7.2,2.4.2s.8,0,.8-.5v-2.3h-2.4c-.4,0-.6,0-1,0l1.5.8c-1.3,1.8-2.2,2.6-4,3.9-.6-.8-.9-1.1-1.5-1.6,1.8-1,2.6-1.8,3.4-3q-.2,0-.3,0c0-.5,0-.9,0-1.9v-2.1c-.4.3-.6.4-1.3.8-.2-.5-.3-.7-.5-1.3-.2,2.3-.5,3.9-1,5.4-.5,1.4-1,2.4-2.1,3.8-.7-.8-1-1.2-1.8-1.8,1.5-1.8,2.1-3.3,2.5-6.4-.6.4-1.5.9-2,1.1-.1,0-.3.1-.4.2l-.7-2.3c.8-.2,2-.7,3.3-1.4,0-.7,0-1.1,0-2.1l-1.6,1.1c-.5-1.7-.9-2.7-1.7-4.1l1.7-1c.7,1.3,1.1,2,1.6,3.5v-.8c0-.4,0-1.6,0-2.3,0-1.7,0-2-.1-2.8.7,0,1.5.1,2.7.1h4.4v-.2c0-.6,0-.9-.1-1.3h2.7c0,.4-.1.7-.1,1.3v.2h5.2c1.2,0,2,0,2.7-.1v2.2c-.8,0-1.3,0-2.4,0h-4.8c-.2.5-.2.8-.4,1.1h5c1,0,1.6,0,2.3-.1v2.1c-.6,0-1.1-.1-2.2-.1h-2.9c.5.8.9,1.1,1.6,1.7.8-.7,1.1-.9,1.5-1.6l1.8,1.1c-.9.8-1.1,1-1.7,1.5,1,.5,1.5.7,2.7,1.1-.5.8-.6,1.1-.9,2-.9-.4-1.2-.5-1.9-.9v2.3ZM79.2,53.9c0,1.3,0,2.3,0,3.7.8-.4,1.2-.6,1.9-1.1-.5-.6-.8-.8-1.6-1.3l1.4-1.1c.8.6,1.1.9,1.5,1.3.5-.6.8-.9,1.2-1.5h-1.8c-1,0-1.5,0-2,0v-2.1c.6,0,1.1,0,2.1,0h2.7c.2-.4.2-.6.4-1.1h-5.7v3.1ZM83.1,58.7h6.6v-.9h-6.6v.9ZM83.1,61.2h6.6v-.9h-6.6v.9ZM88.4,56c-.7-.7-1-1.1-1.7-2.2h-.8c-.5.9-.9,1.5-1.5,2.2h4Z"/>
    <path class="st1" d="M110.6,65.1c.7,0,1.4.1,2.4.1s2.5,0,3.7-.2c-.3.9-.4,1.4-.6,2.3-.7,0-1.6,0-2.2,0-3.1,0-4.9-.3-6.2-.9-.9-.4-1.7-1.1-2.5-2-.7,1.5-1.1,2-2.3,3.4-.7-.8-.8-.8-1.7-1.5-.2,1-.8,1.3-2.6,1.3s-1,0-1.8,0c0-.9-.2-1.4-.5-2.3.9,0,1.3.1,1.9.1s.8-.1.8-.7v-5c-.5.2-.8.3-1.2.4-.5.2-.8.3-1.1.4l-.4-2.4c.6,0,1.4-.3,2.7-.7v-3.9h-.9c-.5,0-1,0-1.6,0v-2.4c.6.1,1,.1,1.6.1h.9v-1.7c0-1.1,0-1.6-.1-2.2h2.6c-.1.6-.1,1.1-.1,2.2v1.8h.7q.9,0,.9,0s0,0,.2,0c0,0,0,0,.2,0v2.3c-.5,0-.8,0-1.3,0h-.7v3.1c.8-.3,1-.4,1.9-.8v1c.5,0,1.1,0,1.8,0h9.2c.9,0,1.4,0,2-.1v2.2c-.6,0-1.2-.1-2-.1h-3.5v1.8h2.8c.9,0,1.4,0,2-.1v2.1c-.6,0-1.1-.1-2-.1h-2.8v2.3ZM106.6,60.3c0,.2-.2.4-.4,1.3,0,.3-.2.5-.3.9.6.9,1.3,1.5,2.3,2.1v-5.5h-3.6c-.8,0-1.2,0-1.7,0v-.9c-.7.3-1,.4-1.8.8v6.5c0,.2,0,.3,0,.5.9-.8,1.4-1.5,1.9-2.4.7-1.2,1.1-2.6,1.3-3.9l2.3.6ZM105.9,55.9c-.9,0-1.2,0-1.8,0,0-.3,0-1.1,0-2.2v-3.5c0-.9,0-1.5,0-2.1.7,0,1.3,0,2.1,0h6.6c.9,0,1.5,0,2.1,0,0,.5-.1,1.1-.1,2v3.6c0,.8,0,.9,0,2.2-.6,0-1.3,0-2.2,0h-6.8ZM106.3,51.2h6.1v-1h-6.1v1ZM106.3,54.1h6.1v-1.1h-6.1v1.1Z"/>
    <path class="st1" d="M133,57.2h2.7c1,0,1.5,0,2-.1v1.9c-.5,0-1.1-.1-2-.1h-8.6c-.6,0-.9,0-1.7,0,0-.6,0-.9,0-1.7v-1.8c0-.7,0-.9,0-1.6-.2.4-.6.8-1.1,1.3-.3-.7-.5-.9-1-1.5h-.8v3.4c.7-.2,1-.4,2.2-.8v2.2c-1.1.4-1.3.5-2.2.8v6.7c2.6-.7,4-2,4.4-4.1h-1.4c-.6,0-1,0-1.6.1v-2.3c.6,0,1,.1,1.7.1h7.2c.8,0,1.3,0,1.8,0q-.1.4-.3,1c0,.3-.3.8-.4,1.2h1.8c.8,0,1.2,0,1.6-.1-.1.7-.1.7-.2,1.3-.3,1.8-.7,3.1-1.1,3.7-.5.7-1.2.9-2.6.9s-1.6,0-2.6-.1c-.1-.9-.2-1.4-.5-2.2,1.2.2,1.9.3,2.6.3s.9,0,1.1-.4c.2-.3.2-.5.5-1.4h-2.2c-.5,0-1,0-1.4,0,.3-.6.5-1.2.7-2h-2.6c-.3,1.6-.9,2.8-1.8,3.8-.9,1-2,1.7-3.8,2.4-.4-.7-.7-1.3-1.2-1.9-.1.8-.4,1.1-1.1,1.3-.6.2-1.2.3-2.1.3s-.6,0-1.1,0c0-.9-.2-1.4-.5-2.3.7.1,1.3.2,1.8.2s.7-.1.7-.6v-4.9c-.5.2-.7.2-1.2.4-.4.1-.7.2-1.1.4l-.4-2.5c.7,0,1.3-.2,2.7-.6v-4.1h-.8c-.6,0-1.1,0-1.6,0v-2.4c.5.1,1,.2,1.6.2h.8v-1.7c0-1,0-1.5-.1-2.2h2.6c0,.7-.1,1.3-.1,2.2v1.7h.3c.5,0,.8,0,1.2-.1v.9c1.4-1.6,2.4-3.3,2.8-4.9l2.3.5c-.4,1-.5,1.3-.9,1.8h2.7c.5-.7.7-1.2,1-2.1l2.3.4c-.5.9-.7,1.2-1,1.7h2.2c1,0,1.5,0,2,0v2c-.5,0-1-.1-1.7-.1h-2.8v.9h1.8c1.1,0,1.6,0,2,0v1.7c-.5,0-1,0-2,0h-1.8v.9h1.8c1.1,0,1.6,0,2,0v1.7c-.5,0-1,0-2,0h-1.8v.9ZM130.9,51.4h-3.3v.9h3.3v-.9ZM130.9,53.9h-3.3v.9h3.3v-.9ZM127.6,56.3v.9h3.3v-.9h-3.3Z"/>
    <path class="st1" d="M140.5,58.4c1.3.5,2.7,1.2,3.7,1.9l-.9,1.6c-.9-.7-2.5-1.6-3.8-2l.9-1.4ZM139.8,64.6c1.1,0,2.6-.3,4-.9,2.6-.9,4.7-3.2,5.7-6.2.5.6.8.8,1.5,1.2-1.7,4.2-4.7,6.5-9.7,7.5-.6.1-.7.2-1,.2l-.5-1.9ZM141.6,55c1.3.5,2.7,1.2,3.7,1.8l-.9,1.5c-1.1-.8-2.7-1.6-3.7-1.9l.9-1.4ZM148.8,54.7c.6.7,1,1.2,1.5,2.1l-1,.5c-.5-.9-.9-1.4-1.5-2.1l1-.5ZM151,56.4c-.4-.8-.9-1.4-1.4-2l.9-.5c.6.6,1,1.2,1.5,2l-1,.5Z"/>
    <path class="st1" d="M158,55c-.2.3-.2.3-.4,1-1.1,3.5-1.9,5.8-2.8,8,2.2-.2,4.6-.5,5.8-.7-.2-.3-.3-.6-.7-1.3-.6-1.2-.9-1.6-1.3-2.2l1.6-.6c1.3,1.9,2.5,4.3,3.4,6.5l-1.7.9q-.2-.6-.7-1.7t-.5.1c-1.4.3-3.7.6-7.9,1-.8,0-1,0-1.3.2l-.3-1.9h.4c.3,0,.6,0,1.2,0,.7-1.8,1.3-3.3,2-5.6.7-2.1.9-3.1,1-3.9l2,.4Z"/>
    <path class="st1" d="M14,81.4c-.6.7-.9,1-1.7,1.8-.5-.5-1-.9-1.8-1.4,1.5-1.3,2.4-2.3,3-3.6.1-.3.2-.4.3-.9h-4v14.3h14.3c1.1,0,1.8,0,2.4-.1v2.5c-.7-.1-1.3-.2-2.4-.2h-14.4v.9h-2.6c0-.7.1-1.5.1-2.6v-14.8c0-.9,0-1.7,0-2.4.7,0,1.3.1,2.4.1h14.1c1.1,0,1.7,0,2.5-.2v2.4c-.7-.1-1.3-.1-2.4-.1h-9.7l1.9.6c0,.2-.1.2-.2.4q-.2.4-.5,1h7.2c1.1,0,1.6,0,2.2-.1v2.3c-.7,0-1.3-.1-2.1-.1h-3.4q0,.2,0,.5c0,.6,0,1.1-.1,1.7h4.8c1,0,1.5,0,2.1-.1v2.3c-.6,0-1.2-.1-2.2-.1h-4.1c1.1,1.8,3,2.8,6.4,3.4-.5.7-.7,1.2-1.1,2.3-3.6-1-5.5-2.3-7-4.5-1.2,2.1-3.2,3.5-6.4,4.5-.4-.8-.8-1.5-1.3-2.1,1.6-.4,2.4-.7,3.3-1.2,1.2-.7,2-1.5,2.5-2.4h-3.1c-1.2,0-1.7,0-2.4.1v-2.3c.7,0,1.1.1,2.4.1h3.6c0-.8,0-1,.1-2.2h-2.9Z"/>
    <path class="st1" d="M46.3,88c0,1.1,0,1.4,0,1.9-.5,0-.8,0-1.4,0,1.2,1.3,2.2,2,3.8,2.8-.5.6-.9,1.2-1.3,1.9-1.9-1.1-2.9-2-4.4-3.7l1.4-1h-2.6v3.1c0,.7-.2,1.1-.6,1.4-.4.3-.9.4-1.9.4s-1.6,0-2.5,0c0-.8-.2-1.3-.5-2.2.9.2,1.7.2,2.4.2s.8,0,.8-.5v-2.3h-2.4c-.4,0-.6,0-1,0l1.5.8c-1.3,1.8-2.2,2.6-4,3.9-.6-.8-.9-1.1-1.5-1.6,1.8-1,2.6-1.8,3.4-3q-.2,0-.3,0c0-.5,0-.9,0-1.9v-2.1c-.4.3-.6.4-1.3.8-.2-.5-.3-.7-.5-1.3-.2,2.3-.5,3.9-1,5.4-.5,1.4-1,2.4-2.1,3.8-.7-.8-1-1.2-1.8-1.8,1.5-1.8,2.1-3.3,2.5-6.4-.6.4-1.5.9-2,1.1-.1,0-.3.1-.4.2l-.7-2.3c.8-.2,2-.7,3.3-1.4,0-.7,0-1.1,0-2.1l-1.6,1.1c-.5-1.7-.9-2.7-1.7-4.1l1.7-1c.7,1.3,1.1,2,1.6,3.5v-.8c0-.4,0-1.6,0-2.3,0-1.7,0-2-.1-2.8.7,0,1.5.1,2.7.1h4.4v-.2c0-.6,0-.9-.1-1.3h2.7c0,.4-.1.7-.1,1.3v.2h5.2c1.2,0,2,0,2.7-.1v2.2c-.8,0-1.3,0-2.4,0h-4.8c-.2.5-.2.8-.4,1.1h5c1,0,1.6,0,2.3-.1v2.1c-.6,0-1.1-.1-2.2-.1h-2.9c.6.8.9,1.1,1.6,1.7.8-.7,1.1-.9,1.5-1.6l1.8,1.1c-.9.8-1.1,1-1.7,1.5,1,.5,1.5.7,2.7,1.1-.5.8-.6,1.1-.9,2-.9-.4-1.2-.5-1.9-.9v2.3ZM33.6,80.9c0,1.3,0,2.3,0,3.7.8-.4,1.2-.6,1.9-1.1-.5-.6-.8-.8-1.6-1.3l1.4-1.1c.8.6,1.1.9,1.5,1.3.5-.6.8-.9,1.2-1.5h-1.8c-1,0-1.5,0-2,0v-2.1c.6,0,1.1,0,2.1,0h2.7c.2-.4.2-.6.4-1.1h-5.7v3.1ZM37.5,85.7h6.6v-.9h-6.6v.9ZM37.5,88.2h6.6v-.9h-6.6v.9ZM42.7,83c-.7-.7-1-1.1-1.7-2.2h-.8c-.5.9-.9,1.5-1.5,2.2h4Z"/>
    <path class="st1" d="M68.6,80.6c1,0,1.4,0,1.9,0q0,.4-.2,1.5c-.3,1.8-.6,2.3-2.1,2.4v5.1c0,1,0,1.8,0,2.3-.5,0-1.4,0-2.3,0h-1.1c1.6.8,3.3,1.2,6,1.4-.6.7-.8,1.1-1.4,2-3.1-.5-4.7-1.1-7.2-2.5l1.2-.9h-5.7l1.1.9c-2.4,1.4-3.8,1.9-7,2.5-.5-.8-.7-1.1-1.3-1.9,2.6-.3,4.1-.7,5.9-1.5h-1c-.9,0-1.8,0-2.3,0,0-.4,0-1.3,0-2.2v-4.1c-.6.2-.9.3-1.8.6l-.2-.4c-.3-.7-.4-.9-.9-1.6,2.8-.6,3.9-1,5-1.9h-2.4c-.5,0-1.2,0-1.8,0,.6-1.3,1.1-2.6,1.3-4,.4,0,1,0,1.8,0h2.9c0-.5,0-.5,0-.8h-3.6c-1,0-1.7,0-2.1.1v-1.9c.6,0,1.1.1,2.1.1h3.6c0-.6,0-.9,0-1.4h2.4c0,.3,0,.4,0,1.4h2.5c0-.7,0-.9-.1-1.4h2.4c0,.5-.1.7-.1,1.4h3c.7,0,1.6,0,2.2-.1,0,.5,0,.8,0,1.7v.9c0,.8,0,1,0,1.6-.7,0-1.4,0-2.2,0h-3v.8h4.5ZM54.4,79.8c-.1.4-.2.5-.3.8h2.6c.1-.3.2-.4.3-.8h-2.6ZM55.5,85.6h10.4v-.8h-10.4v.8ZM55.5,87.8h10.4v-.8h-10.4v.8ZM55.5,90h10.4v-.8h-10.4v.8ZM62,82.2h-3.8c-.3.4-.5.7-1,1.1h4.8v-1.1ZM59.1,79.8c0,.3-.1.4-.2.8h3v-.8h-2.8ZM59.4,77.5c0,.3,0,.4,0,.8h2.6v-.8h-2.5ZM64.1,78.3h2.8v-.8h-2.8v.8ZM66.4,83.3c0-.2,0-.3-.2-.6.5.1.9.2,1.2.2.4,0,.5,0,.6-.7h-3.9v1.1h2.3Z"/>
    <path class="st1" d="M74,76.8c0-1.1,0-1.6-.1-2.3h2.6c0,.6-.1,1.1-.1,2.2v1.8c.7,0,.9,0,1.3,0v2.3q-.5,0-1.3,0v3.2c.7-.3,1-.4,1.8-.8v1c1.1-.4,1.7-.7,2.2-1.3.8-.8,1.2-1.7,1.3-3.1,0-.3,0-.3,0-.9h-1.7v2.4h-2c0-.5,0-.9,0-1.4v-1.7c0-.7,0-.9,0-1.5.5,0,1.1,0,2.1,0h3.2v-.8c0-.5,0-1-.1-1.5h2.6c0,.5,0,.9,0,1.5v.8h3.8c1,0,1.6,0,2.1,0,0,.5,0,.9,0,1.6v1.2c0,.6,0,1,0,1.4h-2.3v-2h-2.1v3.8c0,.4.1.4.8.4,1.7,0,1.8,0,1.8-1.4s0-.2,0-.4c.9.3,1.5.5,2,.5,0,1.5-.3,2.2-.6,2.7-.4.5-1.1.6-3.1.6s-3-.3-3-1.5v-4.8h-1.2c0,1.3-.1,1.6-.3,2.3-.4,1.6-1.1,2.9-2.2,3.7-.6.5-1.1.8-2,1.2-.4-.8-.7-1.2-1.2-1.8v1c-.8.4-1,.5-1.9.9v6.4c0,1.6-.7,2.1-3,2.1s-.6,0-1.2,0c0-.9-.2-1.4-.5-2.2.7,0,1.4.2,1.9.2s.6-.1.6-.6v-4.8c-.4.2-.6.2-1.1.4-.6.2-.7.2-1,.4l-.5-2.4c.8-.1,1.2-.2,2.6-.7v-4h-.9c-.5,0-.9,0-1.5,0v-2.3c.5,0,.9.1,1.5.1h.9v-1.8ZM81.3,88.7c-1.1,0-1.9,0-2.5.1v-2.4c.6,0,1.3.1,2.5.1h6.9c1.1,0,1.8,0,2.4-.1v2.4c-.7,0-1.4-.1-2.4-.1h-2.6v3.2h3.4c1.1,0,1.9,0,2.6-.1v2.4c-.7,0-1.6-.1-2.6-.1h-9c-1,0-1.8,0-2.6.1v-2.4c.6,0,1.4.1,2.6.1h3.2v-3.2h-1.9Z"/>
    <path class="st1" d="M101,86.6c0,2.4-.9,3.2-3.3,3.2h-.4c0-1.1-.1-1.5-.4-2.2.6,0,.8,0,1,0,.7,0,.9-.3.9-1.2s0-1.4-.3-2c-.3-1-.6-1.5-1.5-2.4,1-1.7,1.5-2.9,2-4.8h-2.4v14.8c0,.9,0,1.9.1,2.7h-2.5c0-.7.1-1.7.1-2.7v-14.9c0-.8,0-1.5,0-2.1.4,0,1,0,1.7,0h2.9c.7,0,1.2,0,1.6,0l1.3,1.1c-.2.4-.2.5-.3.8-.4,1.2-.6,1.7-1.1,2.8,1.1-.6,1.7-1,2.5-1.8,1.2-1.1,1.8-1.9,2.6-3.3h2.4c1.4,2.4,3.5,4.1,6.4,5.4-.5.9-.7,1.3-1,2.4-.9-.5-1.3-.7-2-1.2v1.5c-.7,0-.9,0-1.9,0h-1.7v1.8h3.6c1,0,1.4,0,2.1-.1v2.4c-.5,0-1.2-.1-2.1-.1h-3.6v5.8c0,1.8-.6,2.2-2.9,2.2s-1,0-2,0c0-.9-.2-1.5-.6-2.3.7.1,1.6.2,2.1.2.8,0,1.1-.1,1.1-.6v-5.2h-4.5ZM104.3,88c-.6,1.7-1.1,2.5-1.8,3.7-.6.9-1,1.3-2,2.2-.6-.9-.9-1.2-1.7-1.8,1-.8,1.4-1.2,2-2,.7-.9,1-1.6,1.4-3l2.1.8ZM105.5,82.6h-1.3c-1,0-1.1,0-1.9,0v-1.4c-.5.3-.6.4-1.2.8-.4-1-.5-1.1-1-1.8-.2.5-.3.7-.7,1.5.8,1.1,1.1,1.6,1.3,2.6h4.8v-1.8ZM109.5,80.6c.5,0,.7,0,1,0-1.5-1.1-2.7-2.4-3.7-3.9-1.1,1.7-2,2.6-3.5,3.9h6.2ZM110.9,87.3c.5,1.2.8,1.7,1.4,2.7.6.9.9,1.3,1.8,2-.7.6-1,1-1.6,2-1.9-2.2-2.6-3.3-3.6-5.9l2-.8Z"/>
    <path class="st1" d="M120.3,82.4c0,.4-.2,1-.3,1.7q0,.2,0,.4c.4,0,.6,0,.9,0,.9,0,1.6.3,2.1.7.5.5.7,1.2.7,2.5,0,2.4-.4,4.3-1.1,5.1-.4.5-.8.6-1.6.6s-1.2-.1-2.2-.4c0-.3,0-.5,0-.6,0-.4,0-.6-.1-1.2.8.3,1.6.6,2,.6s.6-.3.8-1c.2-.7.4-2,.4-3.2s-.3-1.7-1.4-1.7-.5,0-.8,0c-.7,2.9-1.3,4.6-2.9,7.6l-1.6-.9c1.1-1.5,2.2-4,2.8-6.6q-.2,0-.7.1l-1.3.2c-.2,0-.4,0-.6.1l-.2-1.7c.6,0,1.4,0,3-.3.3-1.6.4-2.4.4-2.8v-.3l1.8.2c0,.1,0,.3-.1.4v.2ZM124.6,81.8c.6.7,1,1.2,1.5,2.1l-1,.5c-.5-.9-.9-1.4-1.5-2.1l1-.5ZM125.9,84.6c1,1.3,1.7,2.8,2.1,4.5l-1.6.8c-.3-1.5-1.1-3.5-1.9-4.6l1.4-.7ZM126.8,83.5c-.4-.8-.9-1.4-1.4-2l.9-.5c.6.6,1,1.2,1.5,2l-1,.5Z"/>
    <path class="st1" d="M130.3,88.4c0-.4,0-.7,0-1.6-.3.5-.5.9-1,1.5-.2-.7-.3-1.1-.6-1.7,1.3-1.4,2.4-3.7,2.6-5.6l1.6.4c-.6,1.7-.6,2-1.1,3.1v8c0,.6,0,1.1,0,1.6h-1.6c0-.5,0-1,0-1.6v-4.1ZM137.6,89.1c-.2.9-.4,1.5-.8,2.1,1.5.8,2.9,1.1,5.3,1.2-.3.5-.5,1-.6,1.6-2.4-.3-4-.8-5.5-1.7-.8.8-1.7,1.3-3.1,1.8-.3-.5-.5-.9-.9-1.3,1.3-.4,2.1-.7,2.8-1.3-.4-.3-.5-.5-.9-1-.2-.2-.3-.4-.4-.5l1.2-.6c.2.3.4.7.9,1.1.3-.5.4-.8.5-1.3h-2.1c-.4,0-.8,0-1.1,0,0-.4,0-.7,0-1.2v-1.9c0-.6,0-.8,0-1.2.4,0,.6,0,1.3,0h2.2v-1h-2.3c-.6,0-.9,0-1.3,0v-1.5c.4,0,1,0,1.5,0h2.1c0-.7,0-1,0-1.4h1.6q0,.4,0,1.4h2.4c.6,0,1.1,0,1.6,0v1.5c-.4,0-.8,0-1.4,0h-2.6v1h2.1c.6,0,.9,0,1.3,0,0,.4,0,.7,0,1.2v1.8c0,.7,0,.9,0,1.3-.4,0-.7,0-1.4,0h-2.3ZM134.4,86.3v1.5h1.9c0-.6,0-.7,0-1.5h-1.9ZM137.8,86.3c0,.7,0,1,0,1.5h2v-1.5h-1.9Z"/>
    <path class="st1" d="M144.3,85.1c.4,0,.5,0,.8,0,1.4,0,3.2-.1,5-.3.6,0,.9-.1,1.1-.2l.9,1.2c-.3.2-.6.4-1.2,1.1-.8.7-2,1.8-2.4,2.1.3-.1.5-.2.9-.2.5,0,.9.2,1.2.6.2.3.3.5.3,1.3,0,1.1.3,1.3,1.2,1.3s2-.2,2.8-.5l.2,1.7c-.2,0-.3,0-1.2.2-.9.1-1.4.2-2,.2-1,0-1.6-.2-2-.5-.4-.4-.5-.7-.6-1.8,0-.5,0-.7-.1-.9,0-.2-.3-.3-.6-.3-.7,0-1.3.4-2.4,1.5-.7.7-1.5,1.5-2,2.1l-1.3-1.5q.6-.4,3.2-2.8c.3-.3.6-.5,1.6-1.5.4-.4.9-.9,1.6-1.6-.8.1-1.2.2-1.8.2q-.2,0-1.4.1t-.7,0c-.5,0-.6,0-1.1.1v-1.7ZM146,81.5c1.6.5,3.4.7,5.6.8l-.3,1.6c-2.8-.2-3.9-.3-5.8-.8l.5-1.5Z"/>
    <path class="st1" d="M159.9,87.2c1.3-.5,1.9-.6,2.9-.6,2.4,0,3.9,1.2,3.9,3.2s-.7,2.4-1.9,3.1c-.9.5-2.1.8-3.4.8s-2.2-.2-2.7-.6c-.5-.4-.8-1-.8-1.6,0-1.2,1-2,2.4-2s1.8.4,2.4,1.1c.3.3.4.7.6,1.3,1.2-.4,1.7-1,1.7-2s-1.1-1.8-2.8-1.8-4.1.8-5.8,2.4l-1-1.5c.5-.2,1.1-.6,2-1.3,1.3-1,3.1-2.6,4.2-3.6,0,0,.2-.2.3-.3h0c-.5,0-1.4.1-4,.2-.3,0-.4,0-.7,0v-1.7c.4,0,.8,0,1.6,0,1.2,0,2.9,0,4.3-.2.5,0,.6,0,.9-.2l.9,1.2c-.2.1-.3.2-.7.6-.7.6-1.7,1.6-2.2,2-.3.2-1.3,1-1.5,1.1q-.4.2-.6.4h0ZM160.3,90.7c-.5,0-.8.3-.8.6,0,.6.6.9,1.7.9s.3,0,.7,0c-.3-1-.8-1.5-1.6-1.5Z"/>
    <path class="st1" d="M23.8,104c0,.2,0,.3-.1.4v.4s-.2.6-.2.6v.5c-1,6.3-2.7,10.6-5.7,14-1-1-1.5-1.3-2.5-1.9,1.3-1.3,2.2-2.7,3.1-4.7.9-2,1.7-4.8,2.1-7.5.1-.9.2-1.7.2-2.1v-.3l3,.5ZM30.1,103.5c0,1,.4,3.2.9,5.1,1.1,4.1,2.6,7,4.9,9.5-1.1.7-1.6,1.1-2.4,2-2.9-3.5-5-8.6-5.8-14.5-.1-.9-.2-1.3-.3-1.6l2.7-.5ZM36.3,104.8c0,1.4-1.1,2.6-2.6,2.6s-2.5-1.1-2.5-2.6,1.1-2.5,2.5-2.5,2.6,1.1,2.6,2.5ZM32.3,104.8c0,.8.6,1.5,1.4,1.5s1.5-.7,1.5-1.5-.6-1.4-1.5-1.4-1.4.6-1.4,1.4Z"/>
    <path class="st1" d="M38.1,110c1,.1,1.4.2,3.6.2h11.7c2.2,0,2.6,0,3.6-.2v3.1c-.9-.1-1.1-.1-3.6-.1h-11.7c-2.5,0-2.7,0-3.6.1v-3.1Z"/>
    <path class="st1" d="M62.5,103.5c1.3,2.4,2,3.9,3,7l-2.9,1c-.6-2.5-1.7-5.2-2.8-7.1l2.7-.9ZM76.4,104.2c-.2.5-.3.7-.6,2.2-.9,4-2.6,7.6-4.9,10.1-1.7,2-3.6,3.4-6.3,4.8-.7-1.2-1.1-1.5-2-2.4,2.6-1.1,4.4-2.4,6.1-4.2,1.6-1.7,2.7-3.6,3.6-6.2.6-1.9,1-3.6,1.1-5l3,.7Z"/>
    <path class="st1" d="M94.5,107.5c1.5,0,2,0,2.9-.2v2.8c-.8,0-1.4-.1-2.8-.1h-4.5c-.2,3.1-.6,4.5-1.6,6.2-1.2,2-2.8,3.4-5.6,4.9-.7-1.3-1.1-1.7-2-2.4,2.6-1.1,4.3-2.5,5.3-4.3.7-1.2.9-2.2,1.1-4.4h-5.5c-1.5,0-2,0-2.8.1v-2.8c.9.1,1.3.2,2.9.2h5.5c0-.9,0-1.3,0-1.7v-1.3c0-.9,0-1.5-.1-2.1h3c0,.7,0,.7-.1,2.1v1.3q0,1.5,0,1.7h4.4Z"/>
    <path class="st1" d="M104.9,102.9q0,.6-.2,4.9c-.2,4.3-.6,6.8-1.8,9-.7,1.5-1.6,2.6-3,4.1-.9-1.1-1.2-1.4-2.2-2.1,1.1-.9,1.6-1.5,2.3-2.5,1.6-2.5,2.1-5.4,2.1-11.5s0-1.4,0-2l3,.2ZM110.7,102.7c-.1.6-.1,1-.2,2.1v12.5c1.4-.7,2.3-1.4,3.3-2.5,1-1.2,1.7-2.4,2.2-4,.8,1,1.1,1.3,2.1,2.1-.9,2.2-2,3.8-3.5,5.1-1.3,1.1-2.4,1.7-4.7,2.6-.5.2-.7.3-.9.4l-1.4-1.5c.2-.6.2-1.1.2-2.3v-12.4c.1,0,.1-.7.1-.7,0-.6,0-1,0-1.5h3Z"/>
    <path class="st1" d="M121.2,108c2,.8,4.2,1.9,5.9,3l-1.4,2.5c-1.5-1.1-3.9-2.5-6-3.2l1.5-2.3ZM120.2,117.9c1.7,0,4-.5,6.4-1.4,4-1.4,7.3-5,8.9-9.7.9.9,1.3,1.3,2.3,2-2.7,6.7-7.4,10.3-15.2,11.8-.9.2-1.1.2-1.5.4l-.8-3ZM122.9,102.7c2.1.8,4.3,1.8,5.9,2.8l-1.4,2.4c-1.8-1.2-4.3-2.5-5.9-3l1.4-2.2ZM134.3,102.2c1,1,1.6,1.9,2.3,3.2l-1.5.8c-.7-1.3-1.3-2.2-2.3-3.3l1.5-.8ZM137.7,104.9c-.7-1.2-1.4-2.2-2.2-3.2l1.5-.8c1,1,1.6,1.8,2.3,3.1l-1.5.9Z"/>
    <path class="st1" d="M148.7,102.7c-.2.5-.3.5-.6,1.6-1.7,5.5-2.9,9.2-4.4,12.5,3.5-.3,7.3-.7,9.2-1.1-.2-.5-.5-1-1-2-1-1.8-1.4-2.5-2.1-3.5l2.5-1c2,3,4,6.7,5.3,10.2l-2.7,1.4q-.3-.9-1.1-2.7-.3,0-.8.2c-2.2.5-5.9.9-12.5,1.6-1.2.1-1.6.2-2,.3l-.4-3h.6c.4,0,1,0,1.9,0,1.2-2.8,2-5.3,3.2-8.9,1-3.2,1.5-4.8,1.6-6.1l3.2.6Z"/>
  </g>
</svg>